<svg width="62" height="62" viewBox="0 0 62 62" fill="none" xmlns="http://www.w3.org/2000/svg">
<mask id="mask0_525_1494" style="mask-type:alpha" maskUnits="userSpaceOnUse" x="0" y="0" width="62" height="62">
<rect width="62" height="62" fill="#D9D9D9"/>
</mask>
<g mask="url(#mask0_525_1494)">
<path d="M15.4998 46.5003L8.46025 53.5399C7.85748 54.1427 7.15782 54.2792 6.3613 53.9494C5.56477 53.62 5.1665 53.0314 5.1665 52.1837V9.04199C5.1665 8.00866 5.554 7.10449 6.329 6.32949C7.104 5.55449 8.00817 5.16699 9.0415 5.16699H52.9582C53.9915 5.16699 54.8957 5.55449 55.6707 6.32949C56.4457 7.10449 56.8332 8.00866 56.8332 9.04199V42.6253C56.8332 43.6587 56.4457 44.5628 55.6707 45.3378C54.8957 46.1128 53.9915 46.5003 52.9582 46.5003H15.4998ZM29.0623 27.7712V34.2295C29.0623 34.7785 29.2492 35.2385 29.6229 35.6096C29.9962 35.9812 30.4591 36.167 31.0115 36.167C31.5634 36.167 32.0224 35.9812 32.3884 35.6096C32.7544 35.2385 32.9373 34.7785 32.9373 34.2295V27.7712H39.3957C39.9446 27.7712 40.4049 27.5843 40.7765 27.2106C41.1476 26.8373 41.3332 26.3744 41.3332 25.822C41.3332 25.2701 41.1476 24.8111 40.7765 24.4451C40.4049 24.0791 39.9446 23.8962 39.3957 23.8962H32.9373V17.4378C32.9373 16.8889 32.7505 16.4286 32.3768 16.057C32.0035 15.6859 31.5406 15.5003 30.9882 15.5003C30.4362 15.5003 29.9773 15.6859 29.6113 16.057C29.2453 16.4286 29.0623 16.8889 29.0623 17.4378V23.8962H22.604C22.055 23.8962 21.595 24.083 21.2239 24.4567C20.8523 24.83 20.6665 25.2929 20.6665 25.8453C20.6665 26.3973 20.8523 26.8562 21.2239 27.2222C21.595 27.5882 22.055 27.7712 22.604 27.7712H29.0623Z" fill="black"/>
</g>
</svg>
