<svg width="62" height="62" viewBox="0 0 62 62" fill="none" xmlns="http://www.w3.org/2000/svg">
<mask id="mask0_680_800" style="mask-type:alpha" maskUnits="userSpaceOnUse" x="0" y="0" width="62" height="62">
<rect width="62" height="62" fill="#D9D9D9"/>
</mask>
<g mask="url(#mask0_680_800)">
<path d="M48.6316 56.7043C48.4163 56.6182 48.201 56.4675 47.9857 56.2522L32.3566 40.6231C32.1413 40.4078 31.9906 40.1925 31.9045 39.9772C31.8184 39.762 31.7753 39.5252 31.7753 39.2668C31.7753 39.0085 31.8184 38.7717 31.9045 38.5564C31.9906 38.3411 32.1413 38.1259 32.3566 37.9106L37.8462 32.421C38.0614 32.2057 38.2767 32.055 38.492 31.9689C38.7073 31.8828 38.9441 31.8397 39.2024 31.8397C39.4607 31.8397 39.6975 31.8828 39.9128 31.9689C40.1281 32.055 40.3434 32.2057 40.5587 32.421L56.1878 48.0502C56.4031 48.2654 56.5538 48.4807 56.6399 48.696C56.726 48.9113 56.7691 49.1481 56.7691 49.4064C56.7691 49.6647 56.726 49.9015 56.6399 50.1168C56.5538 50.3321 56.4031 50.5474 56.1878 50.7627L50.6982 56.2522C50.483 56.4675 50.2677 56.6182 50.0524 56.7043C49.8371 56.7904 49.6003 56.8335 49.342 56.8335C49.0837 56.8335 48.8469 56.7904 48.6316 56.7043ZM11.8514 56.7043C11.6146 56.6182 11.3885 56.4675 11.1732 56.2522L5.74824 50.8272C5.53296 50.612 5.38227 50.3859 5.29616 50.1491C5.21005 49.9123 5.16699 49.6647 5.16699 49.4064C5.16699 49.1481 5.21005 48.9113 5.29616 48.696C5.38227 48.4807 5.53296 48.2654 5.74824 48.0502L20.2795 33.5189H25.7691L28.2232 31.0647L16.9212 19.7627H13.2399L5.16699 11.6897L11.5607 5.296L19.6337 13.3689V17.0502L30.9357 28.3522L39.3316 19.9564L35.0045 15.6293L38.6212 12.0127H31.3232L30.1607 10.8502L38.4274 2.5835L39.5899 3.746V11.0439L43.2066 7.42725L54.1212 18.3418C54.767 18.9877 55.2729 19.7304 55.6389 20.57C56.0048 21.4095 56.1878 22.3029 56.1878 23.2502C56.1878 24.1113 56.0479 24.9401 55.768 25.7366C55.4882 26.5331 55.0899 27.2543 54.5732 27.9002L49.0837 22.4106L45.467 26.0272L42.1087 22.6689L28.4816 36.296V41.721L13.9503 56.2522C13.735 56.4675 13.5198 56.6182 13.3045 56.7043C13.0892 56.7904 12.8524 56.8335 12.5941 56.8335C12.3357 56.8335 12.0882 56.7904 11.8514 56.7043Z" fill="black"/>
</g>
</svg>
