<svg width="62" height="62" viewBox="0 0 62 62" fill="none" xmlns="http://www.w3.org/2000/svg">
<mask id="mask0_525_1500" style="mask-type:alpha" maskUnits="userSpaceOnUse" x="0" y="0" width="62" height="62">
<rect width="62" height="62" fill="#D9D9D9"/>
</mask>
<g mask="url(#mask0_525_1500)">
<path d="M28.8042 35.0045L28.9333 36.942C28.9652 37.2098 29.0681 37.4274 29.242 37.5949C29.4164 37.7624 29.6304 37.8462 29.884 37.8462H31.9759C32.2295 37.8462 32.4452 37.7624 32.623 37.5949C32.8004 37.4274 32.9052 37.2098 32.9375 36.942L33.0667 35.0045C33.5833 34.9184 34.0671 34.7363 34.5179 34.4581C34.9686 34.18 35.3676 33.867 35.7146 33.5191L37.6521 34.1649C37.8674 34.251 38.0826 34.251 38.2979 34.1649C38.5132 34.0788 38.6811 33.9313 38.8017 33.7225L39.7963 32.024C39.9168 31.8152 39.9663 31.6031 39.9448 31.3878C39.9233 31.1726 39.8115 30.9751 39.6096 30.7956L38.2979 29.7732C38.5132 29.1705 38.6208 28.5462 38.6208 27.9003C38.6208 27.2545 38.5132 26.6302 38.2979 26.0274L39.6096 25.0051C39.8115 24.8255 39.9233 24.6281 39.9448 24.4128C39.9663 24.1975 39.9168 23.9855 39.7963 23.7767L38.8017 22.0781C38.6811 21.8693 38.5132 21.7219 38.2979 21.6357C38.0826 21.5496 37.8674 21.5496 37.6521 21.6357L35.7146 22.2816C35.3559 21.9505 34.9432 21.6523 34.4765 21.3871C34.0102 21.1223 33.5403 20.9253 33.0667 20.7962L32.9375 18.8587C32.9056 18.5909 32.8027 18.3732 32.6288 18.2057C32.4544 18.0382 32.2404 17.9545 31.9868 17.9545H29.895C29.6414 17.9545 29.4259 18.0382 29.2485 18.2057C29.0707 18.3732 28.9656 18.5909 28.9333 18.8587L28.8042 20.7962C28.3306 20.9253 27.8606 21.1223 27.3943 21.3871C26.9276 21.6523 26.5149 21.9505 26.1563 22.2816L24.2188 21.6357C24.0035 21.5496 23.7882 21.5496 23.5729 21.6357C23.3576 21.7219 23.1897 21.8693 23.0692 22.0781L22.0746 23.7767C21.954 23.9855 21.9045 24.1975 21.926 24.4128C21.9476 24.6281 22.0593 24.8255 22.2612 25.0051L23.5729 26.0274C23.3576 26.6302 23.25 27.2545 23.25 27.9003C23.25 28.5462 23.3576 29.1705 23.5729 29.7732L22.2612 30.7956C22.0593 30.9751 21.9476 31.1726 21.926 31.3878C21.9045 31.6031 21.954 31.8152 22.0746 32.024L23.0692 33.7225C23.1897 33.9313 23.3576 34.0788 23.5729 34.1649C23.7882 34.251 24.0035 34.251 24.2188 34.1649L26.1563 33.5191C26.5033 33.867 26.9022 34.18 27.353 34.4581C27.8038 34.7363 28.2875 34.9184 28.8042 35.0045ZM27.7385 31.105C26.8559 30.2275 26.4146 29.1619 26.4146 27.9081C26.4146 26.6543 26.8533 25.5861 27.7308 24.7035C28.6083 23.8208 29.6739 23.3795 30.9277 23.3795C32.1814 23.3795 33.2497 23.8182 34.1323 24.6957C35.0149 25.5732 35.4563 26.6388 35.4563 27.8926C35.4563 29.1464 35.0175 30.2146 34.14 31.0972C33.2626 31.9798 32.1969 32.4212 30.9432 32.4212C29.6894 32.4212 28.6212 31.9824 27.7385 31.105ZM17.4375 56.8337C16.8885 56.8337 16.4285 56.6479 16.0574 56.2763C15.6858 55.9052 15.5 55.4451 15.5 54.8962V45.7253C13.0458 43.4864 11.1406 40.8708 9.78438 37.8785C8.42813 34.8861 7.75 31.7323 7.75 28.417C7.75 21.9587 10.0104 16.4691 14.5313 11.9482C19.0521 7.42741 24.5417 5.16699 31 5.16699C36.3819 5.16699 41.1504 6.74928 45.3052 9.91387C49.4601 13.0785 52.1618 17.201 53.4104 22.2816L56.9625 36.3607C57.1347 36.9635 57.0271 37.5125 56.6396 38.0076C56.2521 38.5028 55.7354 38.7503 55.0896 38.7503H49.0833V47.792C49.0833 48.8576 48.704 49.7698 47.9454 50.5284C47.1863 51.2875 46.274 51.667 45.2083 51.667H38.75V54.8962C38.75 55.4451 38.5644 55.9052 38.1933 56.2763C37.8217 56.6479 37.3615 56.8337 36.8125 56.8337H17.4375Z" fill="black"/>
</g>
</svg>
