<svg width="62" height="62" viewBox="0 0 62 62" fill="none" xmlns="http://www.w3.org/2000/svg">
<mask id="mask0_680_806" style="mask-type:alpha" maskUnits="userSpaceOnUse" x="0" y="0" width="62" height="62">
<rect width="62" height="62" fill="#D9D9D9"/>
</mask>
<g mask="url(#mask0_680_806)">
<path d="M29.0622 50.375V34.6167L8.65391 12.6583C8.39557 12.4 8.20182 12.0878 8.07266 11.7219C7.94349 11.3559 7.87891 11.0007 7.87891 10.6562C7.87891 9.83819 8.15877 9.14931 8.71849 8.58958C9.27821 8.02986 9.9671 7.75 10.7852 7.75H51.2143C52.0324 7.75 52.7213 8.02986 53.281 8.58958C53.8407 9.14931 54.1206 9.83819 54.1206 10.6562C54.1206 11.0007 54.056 11.3559 53.9268 11.7219C53.7977 12.0878 53.6039 12.4 53.3456 12.6583L32.9372 34.6167V50.375H44.5622C45.122 50.375 45.5848 50.558 45.9508 50.924C46.3168 51.2899 46.4997 51.7528 46.4997 52.3125C46.4997 52.8722 46.3168 53.3351 45.9508 53.701C45.5848 54.067 45.122 54.25 44.5622 54.25H17.4372C16.8775 54.25 16.4147 54.067 16.0487 53.701C15.6827 53.3351 15.4997 52.8722 15.4997 52.3125C15.4997 51.7528 15.6827 51.2899 16.0487 50.924C16.4147 50.558 16.8775 50.375 17.4372 50.375H29.0622ZM18.1477 17.1146H43.8518L49.2122 11.8833H12.7872L18.1477 17.1146Z" fill="black"/>
</g>
</svg>
