<svg width="62" height="62" viewBox="0 0 62 62" fill="none" xmlns="http://www.w3.org/2000/svg">
<mask id="mask0_680_812" style="mask-type:alpha" maskUnits="userSpaceOnUse" x="0" y="0" width="62" height="62">
<rect width="62" height="62" fill="#D9D9D9"/>
</mask>
<g mask="url(#mask0_680_812)">
<path d="M17.7611 56.8333C13.5847 56.8333 10.0111 55.3156 7.04023 52.2802C4.0694 49.2448 2.58398 45.7034 2.58398 41.6562V28.2875C2.58398 27.2218 2.96352 26.3095 3.72259 25.5504C4.48123 24.7918 5.39336 24.4125 6.45898 24.4125H28.9986C30.0642 24.4125 30.9765 24.7918 31.7356 25.5504C32.4942 26.3095 32.8736 27.2218 32.8736 28.2875V41.6562C32.8736 45.7034 31.4043 49.2448 28.4658 52.2802C25.5272 55.3156 21.959 56.8333 17.7611 56.8333ZM12.2069 37.0708C12.7925 37.0708 13.2833 36.8727 13.6794 36.4766C14.0755 36.0805 14.2736 35.5897 14.2736 35.0041C14.2736 34.4186 14.0755 33.9277 13.6794 33.5316C13.2833 33.1355 12.7925 32.9375 12.2069 32.9375C11.6213 32.9375 11.1305 33.1355 10.7344 33.5316C10.3383 33.9277 10.1402 34.4186 10.1402 35.0041C10.1402 35.5897 10.3383 36.0805 10.7344 36.4766C11.1305 36.8727 11.6213 37.0708 12.2069 37.0708ZM24.8652 36.4766C25.2527 36.0805 25.4465 35.5897 25.4465 35.0041C25.4465 34.4186 25.2484 33.9277 24.8523 33.5316C24.4562 33.1355 23.9654 32.9375 23.3798 32.9375C22.7943 32.9375 22.3034 33.1355 21.9073 33.5316C21.5112 33.9277 21.3132 34.4186 21.3132 35.0041C21.3132 35.5897 21.5069 36.0805 21.8944 36.4766C22.2819 36.8727 22.777 37.0708 23.3798 37.0708C23.9826 37.0708 24.4777 36.8727 24.8652 36.4766ZM59.4173 8.97705V22.9916C59.4173 27.0819 57.948 30.5264 55.0095 33.325C52.071 36.1236 48.5027 37.5229 44.3048 37.5229C43.3145 37.5229 42.3566 37.4475 41.4309 37.2968C40.5052 37.1462 39.5902 36.8986 38.6861 36.5541C37.9541 36.2958 37.3406 35.8685 36.8454 35.2722C36.3503 34.6763 36.1027 34.0057 36.1027 33.2604V27.0604C36.1027 25.5384 35.6117 24.2105 34.6296 23.0769C33.6479 21.9437 32.3952 21.3771 30.8715 21.3771C30.3548 21.3771 29.9135 21.1833 29.5475 20.7958C29.1816 20.4083 28.9986 19.9562 28.9986 19.4396V8.97705C28.9986 7.91143 29.3781 6.99908 30.1372 6.24001C30.8958 5.48137 31.8079 5.10205 32.8736 5.10205H55.5423C56.6079 5.10205 57.5203 5.48137 58.2794 6.24001C59.038 6.99908 59.4173 7.91143 59.4173 8.97705ZM38.8152 18.3416C39.4008 18.3416 39.8916 18.1264 40.2877 17.6958C40.6838 17.2652 40.8819 16.7916 40.8819 16.275C40.8819 15.6894 40.6838 15.1986 40.2877 14.8025C39.8916 14.4064 39.4008 14.2083 38.8152 14.2083C38.2297 14.2083 37.7388 14.4064 37.3427 14.8025C36.9466 15.1986 36.7486 15.6894 36.7486 16.275C36.7486 16.7916 36.9466 17.2652 37.3427 17.6958C37.7388 18.1264 38.2297 18.3416 38.8152 18.3416ZM49.9236 18.3416C50.5091 18.3416 51 18.1264 51.3961 17.6958C51.7922 17.2652 51.9902 16.7916 51.9902 16.275C51.9902 15.6894 51.7922 15.1986 51.3961 14.8025C51 14.4064 50.5091 14.2083 49.9236 14.2083C49.338 14.2083 48.8472 14.4064 48.4511 14.8025C48.055 15.1986 47.8569 15.6894 47.8569 16.275C47.8569 16.7916 48.055 17.2652 48.4511 17.6958C48.8472 18.1264 49.338 18.3416 49.9236 18.3416ZM40.7204 23.8312C39.5795 24.2187 38.6645 24.9076 37.9756 25.8979C37.7173 26.3284 37.7388 26.7482 38.0402 27.1573C38.3416 27.5663 38.7692 27.7708 39.3229 27.7708H49.2868C49.8405 27.7708 50.268 27.5663 50.5694 27.1573C50.8708 26.7482 50.8923 26.3284 50.634 25.8979C49.9451 24.9076 49.0302 24.2187 47.8892 23.8312C46.7482 23.4437 45.5534 23.25 44.3048 23.25C43.0562 23.25 41.8614 23.4437 40.7204 23.8312ZM21.4746 46.5C22.6156 46.1125 23.5305 45.4236 24.2194 44.4333C24.4777 44.017 24.4562 43.6008 24.1548 43.1849C23.8534 42.7686 23.4323 42.5604 22.8916 42.5604H12.8889C12.3481 42.5604 11.927 42.7686 11.6257 43.1849C11.3243 43.6008 11.3027 44.017 11.5611 44.4333C12.25 45.4236 13.1649 46.1125 14.3059 46.5C15.4468 46.8875 16.6416 47.0812 17.8902 47.0812C19.1388 47.0812 20.3336 46.8875 21.4746 46.5Z" fill="black"/>
</g>
</svg>
