<svg width="24" height="24" viewBox="0 0 24 24" fill="none" xmlns="http://www.w3.org/2000/svg">
<mask id="mask0_436_970" style="mask-type:alpha" maskUnits="userSpaceOnUse" x="0" y="0" width="24" height="24">
<rect width="24" height="24" fill="#D9D9D9"/>
</mask>
<g mask="url(#mask0_436_970)">
<path d="M12.0281 20.5004C9.6589 20.5004 7.64999 19.676 6.00132 18.0274C4.35265 16.3785 3.52832 14.3695 3.52832 12.0004C3.52832 10.0274 4.13882 8.27354 5.35982 6.73887C6.58099 5.2042 8.20757 4.21512 10.2396 3.77162C10.4499 3.71895 10.6352 3.72404 10.7953 3.78687C10.9557 3.8497 11.0858 3.94329 11.1858 4.06762C11.2858 4.19212 11.3448 4.34312 11.3628 4.52062C11.3807 4.69812 11.339 4.87537 11.2378 5.05237C11.0313 5.42804 10.8781 5.81828 10.7781 6.22312C10.6781 6.62795 10.6281 7.0537 10.6281 7.50037C10.6281 9.1392 11.2017 10.5323 12.3491 11.6796C13.4962 12.8268 14.8892 13.4004 16.5281 13.4004C17.0192 13.4004 17.4885 13.3382 17.9358 13.2139C18.3833 13.0895 18.775 12.9453 19.1108 12.7811C19.275 12.7095 19.4352 12.6841 19.5916 12.7051C19.7481 12.7263 19.8816 12.7785 19.9921 12.8619C20.1149 12.9452 20.2061 13.059 20.2656 13.2034C20.3252 13.3475 20.332 13.517 20.2858 13.7119C19.9307 15.6785 18.9739 17.3016 17.4156 18.5811C15.8572 19.8606 14.0614 20.5004 12.0281 20.5004ZM12.0281 19.0004C13.4947 19.0004 14.8114 18.5962 15.9781 17.7879C17.1447 16.9795 17.9947 15.9254 18.5281 14.6254C18.1947 14.7087 17.8614 14.7754 17.5281 14.8254C17.1947 14.8754 16.8614 14.9004 16.5281 14.9004C14.4781 14.9004 12.7322 14.1795 11.2906 12.7379C9.8489 11.2962 9.12807 9.55037 9.12807 7.50037C9.12807 7.16704 9.15307 6.8337 9.20307 6.50037C9.25307 6.16704 9.31974 5.8337 9.40307 5.50037C8.10307 6.0337 7.0489 6.8837 6.24057 8.05037C5.43224 9.21704 5.02807 10.5337 5.02807 12.0004C5.02807 13.9337 5.7114 15.5837 7.07807 16.9504C8.44474 18.317 10.0947 19.0004 12.0281 19.0004Z" fill="black"/>
</g>
</svg>
