<svg width="24" height="24" viewBox="0 0 24 24" fill="none" xmlns="http://www.w3.org/2000/svg">
<mask id="mask0_436_905" style="mask-type:alpha" maskUnits="userSpaceOnUse" x="0" y="0" width="24" height="24">
<rect width="24" height="24" fill="#D9D9D9"/>
</mask>
<g mask="url(#mask0_436_905)">
<path d="M14.125 14.125C14.7083 13.5417 15 12.8333 15 12C15 11.1667 14.7083 10.4583 14.125 9.875C13.5417 9.29167 12.8333 9 12 9C11.1667 9 10.4583 9.29167 9.875 9.875C9.29167 10.4583 9 11.1667 9 12C9 12.8333 9.29167 13.5417 9.875 14.125C10.4583 14.7083 11.1667 15 12 15C12.8333 15 13.5417 14.7083 14.125 14.125ZM8.8135 15.1865C7.93783 14.3108 7.5 13.2487 7.5 12C7.5 10.7513 7.93783 9.68917 8.8135 8.8135C9.68917 7.93783 10.7513 7.5 12 7.5C13.2487 7.5 14.3108 7.93783 15.1865 8.8135C16.0622 9.68917 16.5 10.7513 16.5 12C16.5 13.2487 16.0622 14.3108 15.1865 15.1865C14.3108 16.0622 13.2487 16.5 12 16.5C10.7513 16.5 9.68917 16.0622 8.8135 15.1865ZM2 12.75C1.78717 12.75 1.609 12.6782 1.4655 12.5345C1.32183 12.391 1.25 12.2128 1.25 12C1.25 11.7872 1.32183 11.609 1.4655 11.4655C1.609 11.3218 1.78717 11.25 2 11.25H4.25C4.46283 11.25 4.641 11.3218 4.7845 11.4655C4.92817 11.609 5 11.7872 5 12C5 12.2128 4.92817 12.391 4.7845 12.5345C4.641 12.6782 4.46283 12.75 4.25 12.75H2ZM19.75 12.75C19.5372 12.75 19.359 12.6782 19.2155 12.5345C19.0718 12.391 19 12.2128 19 12C19 11.7872 19.0718 11.609 19.2155 11.4655C19.359 11.3218 19.5372 11.25 19.75 11.25H22C22.2128 11.25 22.391 11.3218 22.5345 11.4655C22.6782 11.609 22.75 11.7872 22.75 12C22.75 12.2128 22.6782 12.391 22.5345 12.5345C22.391 12.6782 22.2128 12.75 22 12.75H19.75ZM11.4655 4.7845C11.3218 4.641 11.25 4.46283 11.25 4.25V2C11.25 1.78717 11.3218 1.609 11.4655 1.4655C11.609 1.32183 11.7872 1.25 12 1.25C12.2128 1.25 12.391 1.32183 12.5345 1.4655C12.6782 1.609 12.75 1.78717 12.75 2V4.25C12.75 4.46283 12.6782 4.641 12.5345 4.7845C12.391 4.92817 12.2128 5 12 5C11.7872 5 11.609 4.92817 11.4655 4.7845ZM11.4655 22.5345C11.3218 22.391 11.25 22.2128 11.25 22V19.75C11.25 19.5372 11.3218 19.359 11.4655 19.2155C11.609 19.0718 11.7872 19 12 19C12.2128 19 12.391 19.0718 12.5345 19.2155C12.6782 19.359 12.75 19.5372 12.75 19.75V22C12.75 22.2128 12.6782 22.391 12.5345 22.5345C12.391 22.6782 12.2128 22.75 12 22.75C11.7872 22.75 11.609 22.6782 11.4655 22.5345ZM6.00575 7.0405L4.748 5.81725C4.59933 5.67875 4.52758 5.50475 4.53275 5.29525C4.53792 5.08558 4.60967 4.90317 4.748 4.748C4.90317 4.593 5.084 4.5155 5.2905 4.5155C5.49683 4.5155 5.67242 4.593 5.81725 4.748L7.05 5.99625C7.19483 6.15125 7.26725 6.32683 7.26725 6.523C7.26725 6.71917 7.19483 6.89483 7.05 7.05C6.9115 7.20517 6.74167 7.27858 6.5405 7.27025C6.33917 7.26192 6.16092 7.18533 6.00575 7.0405ZM18.1828 19.252L16.95 18.0038C16.8052 17.8488 16.7327 17.6706 16.7327 17.4693C16.7327 17.2679 16.8052 17.0948 16.95 16.95C17.0885 16.7948 17.2583 16.7214 17.4595 16.7298C17.6608 16.7381 17.8391 16.8147 17.9943 16.9595L19.252 18.1828C19.4007 18.3213 19.4724 18.4953 19.4673 18.7048C19.4621 18.9144 19.3903 19.0968 19.252 19.252C19.0968 19.407 18.916 19.4845 18.7095 19.4845C18.5032 19.4845 18.3276 19.407 18.1828 19.252ZM16.95 7.05C16.7948 6.9115 16.7214 6.74167 16.7298 6.5405C16.7381 6.33917 16.8147 6.16092 16.9595 6.00575L18.1828 4.748C18.3213 4.59933 18.4953 4.52758 18.7048 4.53275C18.9144 4.53792 19.0968 4.60967 19.252 4.748C19.407 4.90317 19.4845 5.084 19.4845 5.2905C19.4845 5.49683 19.407 5.67242 19.252 5.81725L18.0038 7.05C17.8488 7.19483 17.6732 7.26725 17.477 7.26725C17.2808 7.26725 17.1052 7.19483 16.95 7.05ZM4.748 19.252C4.593 19.0968 4.5155 18.916 4.5155 18.7095C4.5155 18.5032 4.593 18.3276 4.748 18.1828L5.99625 16.95C6.15125 16.8052 6.32942 16.7327 6.53075 16.7327C6.73208 16.7327 6.90517 16.8052 7.05 16.95C7.19867 17.0885 7.26883 17.2583 7.2605 17.4595C7.25217 17.6608 7.17883 17.8391 7.0405 17.9943L5.81725 19.252C5.67242 19.407 5.49683 19.482 5.2905 19.477C5.084 19.4718 4.90317 19.3968 4.748 19.252Z" fill="white"/>
</g>
</svg>
