<svg width="24" height="24" viewBox="0 0 24 24" fill="none" xmlns="http://www.w3.org/2000/svg">
<mask id="mask0_590_1723" style="mask-type:alpha" maskUnits="userSpaceOnUse" x="0" y="0" width="24" height="24">
<rect width="24" height="24" fill="#D9D9D9"/>
</mask>
<g mask="url(#mask0_590_1723)">
<path d="M1.79883 17.0845C1.79883 16.5692 1.93183 16.1093 2.19783 15.7048C2.46383 15.3003 2.81908 14.9856 3.26358 14.7608C4.21391 14.2959 5.1695 13.9375 6.13033 13.6855C7.09133 13.4337 8.14741 13.3078 9.29858 13.3078C10.4499 13.3078 11.506 13.4337 12.4668 13.6855C13.4278 13.9375 14.3835 14.2959 15.3338 14.7608C15.7783 14.9856 16.1336 15.3003 16.3996 15.7048C16.6656 16.1093 16.7986 16.5692 16.7986 17.0845V17.7885C16.7986 18.191 16.6508 18.5448 16.3553 18.85C16.0598 19.1552 15.7012 19.3078 15.2793 19.3078H3.31783C2.89616 19.3078 2.53758 19.16 2.24208 18.8645C1.94658 18.5688 1.79883 18.2102 1.79883 17.7885V17.0845ZM20.6833 19.3078H18.4121C18.5377 19.0783 18.6336 18.834 18.6996 18.575C18.7656 18.316 18.7986 18.0538 18.7986 17.7885V16.9615C18.7986 16.3052 18.6379 15.6796 18.3166 15.0848C17.9951 14.4901 17.5391 13.9798 16.9486 13.554C17.6191 13.654 18.2557 13.8088 18.8583 14.0183C19.4608 14.2279 20.0358 14.4757 20.5833 14.7615C21.1 15.0372 21.499 15.3621 21.7803 15.7363C22.0617 16.1103 22.2023 16.5187 22.2023 16.9615V17.7885C22.2023 18.2102 22.0546 18.5688 21.7591 18.8645C21.4636 19.16 21.105 19.3078 20.6833 19.3078ZM6.82458 10.6663C6.14075 9.98243 5.79883 9.15776 5.79883 8.19226C5.79883 7.22693 6.14075 6.40226 6.82458 5.71826C7.50858 5.03426 8.33325 4.69226 9.29858 4.69226C10.2641 4.69226 11.0887 5.03426 11.7726 5.71826C12.4566 6.40226 12.7986 7.22693 12.7986 8.19226C12.7986 9.15776 12.4566 9.98243 11.7726 10.6663C11.0887 11.3503 10.2641 11.6923 9.29858 11.6923C8.33325 11.6923 7.50858 11.3503 6.82458 10.6663ZM16.9051 10.6663C16.2197 11.3503 15.3958 11.6923 14.4333 11.6923C14.3205 11.6923 14.1769 11.6794 14.0026 11.6538C13.8281 11.6281 13.6845 11.5999 13.5718 11.5693C13.9662 11.0951 14.2692 10.5691 14.4811 9.99126C14.6927 9.41343 14.7986 8.81343 14.7986 8.19126C14.7986 7.56893 14.6906 6.97118 14.4746 6.39801C14.2586 5.82501 13.9577 5.29751 13.5718 4.81551C13.7153 4.76418 13.8589 4.73084 14.0026 4.71551C14.1461 4.70001 14.2897 4.69226 14.4333 4.69226C15.3958 4.69226 16.2197 5.03426 16.9051 5.71826C17.5904 6.40226 17.9331 7.22693 17.9331 8.19226C17.9331 9.15776 17.5904 9.98243 16.9051 10.6663ZM3.29858 17.8078H15.2986V17.0845C15.2986 16.8757 15.2463 16.6898 15.1418 16.527C15.0375 16.3642 14.8718 16.2218 14.6448 16.1C13.8218 15.6757 12.9744 15.3542 12.1026 15.1355C11.2307 14.917 10.2961 14.8078 9.29858 14.8078C8.30125 14.8078 7.36666 14.917 6.49483 15.1355C5.62299 15.3542 4.77558 15.6757 3.95258 16.1C3.72558 16.2218 3.55983 16.3642 3.45533 16.527C3.35083 16.6898 3.29858 16.8757 3.29858 17.0845V17.8078ZM10.7111 9.60476C11.1027 9.21309 11.2986 8.74226 11.2986 8.19226C11.2986 7.64226 11.1027 7.17143 10.7111 6.77976C10.3194 6.38809 9.84858 6.19226 9.29858 6.19226C8.74858 6.19226 8.27775 6.38809 7.88608 6.77976C7.49441 7.17143 7.29858 7.64226 7.29858 8.19226C7.29858 8.74226 7.49441 9.21309 7.88608 9.60476C8.27775 9.99643 8.74858 10.1923 9.29858 10.1923C9.84858 10.1923 10.3194 9.99643 10.7111 9.60476Z" fill="#8A8A8D"/>
</g>
</svg>
