<svg width="62" height="62" viewBox="0 0 62 62" fill="none" xmlns="http://www.w3.org/2000/svg">
<mask id="mask0_532_1705" style="mask-type:alpha" maskUnits="userSpaceOnUse" x="0" y="0" width="62" height="62">
<rect width="62" height="62" fill="#D9D9D9"/>
</mask>
<g mask="url(#mask0_532_1705)">
<path d="M10.2038 54.379C8.56773 52.7429 7.74967 50.7623 7.74967 48.4373V26.4144C6.71634 25.4241 5.5969 24.3585 4.39134 23.2175C3.18579 22.0766 2.58301 20.7096 2.58301 19.1165C2.58301 18.1262 2.93822 17.2759 3.64863 16.5655C4.35905 15.855 5.2094 15.4998 6.19967 15.4998C6.93162 15.4998 7.57745 15.6936 8.13717 16.0811C8.6969 16.4686 9.21356 16.9207 9.68717 17.4373C10.1608 16.9207 10.6882 16.4686 11.2695 16.0811C11.8507 15.6936 12.4858 15.4998 13.1747 15.4998C14.165 15.4998 15.0153 15.855 15.7257 16.5655C16.4361 17.2759 16.7913 18.1262 16.7913 19.1165C16.7913 20.7096 16.1886 22.0766 14.983 23.2175C13.7775 24.3585 12.658 25.4241 11.6247 26.4144V48.4373C11.6247 49.686 12.066 50.7516 12.9486 51.6342C13.8313 52.5169 14.8969 52.9582 16.1455 52.9582C17.3941 52.9582 18.4597 52.5169 19.3424 51.6342C20.225 50.7516 20.6663 49.686 20.6663 48.4373V17.7603C20.6663 14.2728 21.8934 11.3019 24.3476 8.84775C26.8018 6.39359 29.7726 5.1665 33.2601 5.1665C36.7476 5.1665 39.7184 6.39359 42.1726 8.84775C44.6268 11.3019 45.8538 14.2728 45.8538 17.7603V18.2123C48.9538 18.6859 51.5587 20.1283 53.6684 22.5394C55.7781 24.9505 56.833 27.7707 56.833 30.9998V43.9165C56.833 47.4901 55.5736 50.5363 53.0549 53.055C50.5361 55.5738 47.49 56.8332 43.9163 56.8332C40.3427 56.8332 37.2966 55.5738 34.7778 53.055C32.2591 50.5363 30.9997 47.4901 30.9997 43.9165V30.9998C30.9997 27.7707 32.0545 24.9505 34.1643 22.5394C36.274 20.1283 38.8788 18.6859 41.9788 18.2123V17.7603C41.9788 15.3061 41.1393 13.2394 39.4601 11.5603C37.7809 9.88109 35.7143 9.0415 33.2601 9.0415C30.8059 9.0415 28.7393 9.88109 27.0601 11.5603C25.3809 13.2394 24.5413 15.3061 24.5413 17.7603V48.4373C24.5413 50.7623 23.7233 52.7429 22.0872 54.379C20.4511 56.0151 18.4705 56.8332 16.1455 56.8332C13.8205 56.8332 11.84 56.0151 10.2038 54.379ZM40.2674 40.2675C39.2556 41.2794 38.7497 42.4957 38.7497 43.9165C38.7497 45.3373 39.2556 46.5537 40.2674 47.5655C41.2792 48.5773 42.4955 49.0832 43.9163 49.0832C45.3372 49.0832 46.5535 48.5773 47.5653 47.5655C48.5771 46.5537 49.083 45.3373 49.083 43.9165C49.083 42.4957 48.5771 41.2794 47.5653 40.2675C46.5535 39.2557 45.3372 38.7498 43.9163 38.7498C42.4955 38.7498 41.2792 39.2557 40.2674 40.2675Z" fill="black"/>
</g>
</svg>
