<svg width="62" height="62" viewBox="0 0 62 62" fill="none" xmlns="http://www.w3.org/2000/svg">
<mask id="mask0_532_1711" style="mask-type:alpha" maskUnits="userSpaceOnUse" x="0" y="0" width="62" height="62">
<rect width="62" height="62" fill="#D9D9D9"/>
</mask>
<g mask="url(#mask0_532_1711)">
<path d="M9.49342 37.7165C7.55592 37.7165 5.91981 37.0446 4.58509 35.7009C3.25037 34.3571 2.58301 32.7255 2.58301 30.8061C2.58301 28.8867 3.25489 27.2551 4.59865 25.9113C5.94242 24.5676 7.57401 23.8957 9.49342 23.8957V15.9519C9.49342 14.9186 9.88092 14.0144 10.6559 13.2394C11.4309 12.4644 12.3351 12.0769 13.3684 12.0769H24.0893C24.0893 10.1394 24.7566 8.50331 26.0913 7.16859C27.4261 5.83387 29.0622 5.1665 30.9997 5.1665C32.9372 5.1665 34.5733 5.83839 35.908 7.18215C37.2427 8.52591 37.9101 10.1575 37.9101 12.0769H48.6309C49.6643 12.0769 50.5684 12.4644 51.3434 13.2394C52.1184 14.0144 52.5059 14.9186 52.5059 15.9519V23.8957C54.4434 23.8957 56.0795 24.5676 57.4143 25.9113C58.749 27.2551 59.4163 28.8867 59.4163 30.8061C59.4163 32.7255 58.7445 34.3571 57.4007 35.7009C56.0569 37.0446 54.4253 37.7165 52.5059 37.7165V50.3748C52.5059 51.4082 52.1184 52.3123 51.3434 53.0873C50.5684 53.8623 49.6643 54.2498 48.6309 54.2498H13.3684C12.3351 54.2498 11.4309 53.8623 10.6559 53.0873C9.88092 52.3123 9.49342 51.4082 9.49342 50.3748V37.7165ZM23.9924 30.5C24.4875 29.9949 24.7351 29.3814 24.7351 28.6593C24.7351 27.9377 24.4824 27.3293 23.9769 26.8342C23.4718 26.3391 22.8583 26.0915 22.1363 26.0915C21.4146 26.0915 20.8063 26.3442 20.3111 26.8497C19.816 27.3548 19.5684 27.9683 19.5684 28.6903C19.5684 29.4119 19.8212 30.0203 20.3266 30.5155C20.8317 31.0106 21.4452 31.2582 22.1673 31.2582C22.8889 31.2582 23.4972 31.0054 23.9924 30.5ZM41.6882 30.5C42.1834 29.9949 42.4309 29.3814 42.4309 28.6593C42.4309 27.9377 42.1782 27.3293 41.6727 26.8342C41.1677 26.3391 40.5541 26.0915 39.8321 26.0915C39.1105 26.0915 38.5021 26.3442 38.007 26.8497C37.5118 27.3548 37.2643 27.9683 37.2643 28.6903C37.2643 29.4119 37.517 30.0203 38.0225 30.5155C38.5275 31.0106 39.141 31.2582 39.8631 31.2582C40.5847 31.2582 41.1931 31.0054 41.6882 30.5ZM22.0872 43.5936H39.9122C40.4611 43.5936 40.9214 43.4067 41.293 43.033C41.6641 42.6597 41.8497 42.1969 41.8497 41.6445C41.8497 41.0925 41.6641 40.6335 41.293 40.2675C40.9214 39.9016 40.4611 39.7186 39.9122 39.7186H22.0872C21.5382 39.7186 21.0782 39.9054 20.707 40.2792C20.3355 40.6525 20.1497 41.1153 20.1497 41.6677C20.1497 42.2197 20.3355 42.6787 20.707 43.0446C21.0782 43.4106 21.5382 43.5936 22.0872 43.5936Z" fill="black"/>
</g>
</svg>
