<svg width="62" height="62" viewBox="0 0 62 62" fill="none" xmlns="http://www.w3.org/2000/svg">
<mask id="mask0_532_1717" style="mask-type:alpha" maskUnits="userSpaceOnUse" x="0" y="0" width="62" height="62">
<rect width="62" height="62" fill="#D9D9D9"/>
</mask>
<g mask="url(#mask0_532_1717)">
<path d="M9.04141 30.9998C9.04141 35.5207 10.2685 39.611 12.7227 43.2707C15.1768 46.9304 18.4706 49.6214 22.6039 51.3436C23.1206 51.5589 23.4973 51.9141 23.7341 52.4092C23.9709 52.9044 23.9602 53.3887 23.7018 53.8623C23.3574 54.379 22.9053 54.7127 22.3456 54.8634C21.7859 55.0141 21.2046 54.9603 20.6018 54.7019C15.8657 52.6353 12.1091 49.4599 9.33203 45.1759C6.55495 40.8919 5.16641 36.1665 5.16641 30.9998C5.16641 29.6221 5.27405 28.2335 5.48932 26.8342C5.7046 25.4349 6.04905 24.0679 6.52266 22.7332L3.93932 24.2186C3.46571 24.4769 2.98134 24.5523 2.4862 24.4446C1.99106 24.337 1.61432 24.0464 1.35599 23.5728C1.09766 23.0991 1.03307 22.604 1.16224 22.0873C1.29141 21.5707 1.5928 21.1832 2.06641 20.9248L9.88099 16.404C10.3546 16.1457 10.8497 16.0811 11.3664 16.2103C11.8831 16.3394 12.2706 16.6408 12.5289 17.1144L17.0497 24.8644C17.3081 25.338 17.3727 25.8332 17.2435 26.3498C17.1143 26.8665 16.8129 27.254 16.3393 27.5123C15.8657 27.7707 15.3706 27.8353 14.8539 27.7061C14.3372 27.5769 13.9497 27.2755 13.6914 26.8019L10.9143 22.0873C10.3115 23.5082 9.8487 24.9613 9.52578 26.4467C9.20287 27.9321 9.04141 29.4498 9.04141 30.9998ZM30.9997 9.0415C28.5456 9.0415 26.1883 9.429 23.9279 10.204C21.6674 10.979 19.5685 12.12 17.631 13.6269C17.1574 13.9714 16.6515 14.1328 16.1133 14.1113C15.5751 14.0898 15.1768 13.8422 14.9185 13.3686C14.6171 12.8519 14.531 12.2922 14.6602 11.6894C14.7893 11.0866 15.0907 10.613 15.5643 10.2686C17.8032 8.63248 20.2359 7.3731 22.8622 6.49046C25.4886 5.60782 28.2011 5.1665 30.9997 5.1665C34.7456 5.1665 38.2977 5.93074 41.656 7.45921C45.0143 8.98768 47.9206 11.1512 50.3747 13.9498V10.979C50.3747 10.4193 50.5577 9.95643 50.9237 9.59046C51.2897 9.22449 51.7525 9.0415 52.3122 9.0415C52.872 9.0415 53.3348 9.22449 53.7008 9.59046C54.0668 9.95643 54.2497 10.4193 54.2497 10.979V20.0207C54.2497 20.5804 54.0668 21.0432 53.7008 21.4092C53.3348 21.7752 52.872 21.9582 52.3122 21.9582H43.2706C42.7109 21.9582 42.248 21.7752 41.882 21.4092C41.5161 21.0432 41.3331 20.5804 41.3331 20.0207C41.3331 19.4609 41.5161 18.9981 41.882 18.6321C42.248 18.2662 42.7109 18.0832 43.2706 18.0832H48.7602C46.6935 15.2415 44.0994 13.0241 40.9779 11.4311C37.8563 9.83803 34.5303 9.0415 30.9997 9.0415ZM47.2747 45.7894C49.4706 43.3353 51.0421 40.5582 51.9893 37.4582C52.9366 34.3582 53.1734 31.1936 52.6997 27.9644C52.6136 27.4047 52.732 26.9096 53.055 26.479C53.3779 26.0485 53.7977 25.8332 54.3143 25.8332C54.9171 25.8332 55.4338 26.0592 55.8643 26.5113C56.2949 26.9634 56.5532 27.5123 56.6393 28.1582C56.9838 31.6457 56.6824 35.0363 55.7352 38.33C54.7879 41.6238 53.2164 44.6269 51.0206 47.3394C49.1261 49.6644 46.9303 51.5912 44.4331 53.1196C41.9359 54.6481 39.2234 55.7137 36.2956 56.3165L38.7497 57.7373C39.2234 57.9957 39.514 58.3832 39.6216 58.8998C39.7293 59.4165 39.6539 59.9116 39.3956 60.3853C39.1372 60.8589 38.7605 61.1495 38.2654 61.2571C37.7702 61.3648 37.2859 61.2894 36.8122 61.0311L28.9331 56.5103C28.4595 56.2519 28.1581 55.8644 28.0289 55.3478C27.8997 54.8311 27.9643 54.336 28.2227 53.8623L32.7435 46.1123C33.0018 45.6387 33.3893 45.3373 33.906 45.2082C34.4227 45.079 34.9178 45.1436 35.3914 45.4019C35.865 45.6603 36.1556 46.037 36.2633 46.5321C36.3709 47.0273 36.2956 47.5116 36.0372 47.9853L33.2602 52.8936C35.9727 52.6353 38.5345 51.8926 40.9456 50.6655C43.3567 49.4384 45.4664 47.813 47.2747 45.7894Z" fill="black"/>
</g>
</svg>
