<svg width="62" height="62" viewBox="0 0 62 62" fill="none" xmlns="http://www.w3.org/2000/svg">
<mask id="mask0_545_930" style="mask-type:alpha" maskUnits="userSpaceOnUse" x="0" y="0" width="62" height="62">
<rect width="62" height="62" fill="#D9D9D9"/>
</mask>
<g mask="url(#mask0_545_930)">
<path d="M33.6471 7.62085C33.6471 6.97502 33.8947 6.44759 34.3898 6.03856C34.885 5.62953 35.4339 5.4896 36.0367 5.61877C41.2464 6.60904 45.6919 8.9771 49.3732 12.7229C53.0544 16.4688 55.3902 20.9465 56.3805 26.1563C56.4666 26.759 56.3266 27.2757 55.9607 27.7063C55.5947 28.1368 55.0888 28.3521 54.443 28.3521H38.7492C38.6201 28.3521 38.5124 28.3198 38.4263 28.2552C38.3402 28.1906 38.2756 28.0938 38.2326 27.9646C37.8881 27.0174 37.3391 26.1993 36.5857 25.5104C35.8322 24.8215 34.9819 24.3049 34.0346 23.9604C33.9055 23.9174 33.8086 23.8528 33.744 23.7667C33.6794 23.6806 33.6471 23.5729 33.6471 23.4438V7.62085ZM25.768 56.3167C19.8263 55.1542 14.918 52.2264 11.043 47.5333C7.16797 42.8403 5.23047 37.3938 5.23047 31.1938C5.23047 24.9507 7.1572 19.4396 11.0107 14.6604C14.8641 9.88127 19.7832 6.8889 25.768 5.68335C26.4569 5.55418 27.0596 5.70488 27.5763 6.13543C28.093 6.56599 28.3513 7.12571 28.3513 7.8146V23.5083L28.093 23.9604C26.6721 24.5632 25.5204 25.532 24.6378 26.8667C23.7551 28.2014 23.3138 29.6438 23.3138 31.1938C23.3138 32.7007 23.7551 34.057 24.6378 35.2625C25.5204 36.4681 26.6506 37.3722 28.0284 37.975C28.0714 37.975 28.1791 38.1257 28.3513 38.4271V54.1854C28.3513 54.8743 28.093 55.434 27.5763 55.8646C27.0596 56.2952 26.4569 56.4458 25.768 56.3167ZM35.843 56.3813C35.2402 56.4674 34.7235 56.3274 34.293 55.9615C33.8624 55.5955 33.6471 55.1111 33.6471 54.5083V38.5563C33.6471 38.4271 33.6902 38.3087 33.7763 38.2011C33.8624 38.0934 33.9701 38.0181 34.0992 37.975C35.0895 37.6306 35.9398 37.1247 36.6503 36.4573C37.3607 35.7899 37.8881 34.9827 38.2326 34.0354L38.7492 33.6479H54.443C55.0457 33.6479 55.5517 33.8955 55.9607 34.3906C56.3697 34.8858 56.5096 35.4347 56.3805 36.0375C55.3902 41.2472 53.0221 45.6927 49.2763 49.374C45.5305 53.0552 41.0527 55.391 35.843 56.3813Z" fill="#1C1B1F"/>
</g>
</svg>
