<svg width="62" height="62" viewBox="0 0 62 62" fill="none" xmlns="http://www.w3.org/2000/svg">
<mask id="mask0_545_936" style="mask-type:alpha" maskUnits="userSpaceOnUse" x="0" y="0" width="62" height="62">
<rect width="62" height="62" fill="#D9D9D9"/>
</mask>
<g mask="url(#mask0_545_936)">
<path d="M24.7362 22.0878L29.5154 14.2732L25.705 7.94408C25.1883 7.08296 24.4456 6.65241 23.4768 6.65241C22.5081 6.65241 21.7654 7.08296 21.2487 7.94408L15.8883 16.792C15.5869 17.2656 15.5116 17.75 15.6623 18.2451C15.8129 18.7403 16.1251 19.1385 16.5987 19.4399L22.0883 22.7982C22.5619 23.0566 23.0463 23.1212 23.5414 22.992C24.0366 22.8628 24.4348 22.5614 24.7362 22.0878ZM48.7612 41.3337L44.0466 33.4545C43.7452 32.9809 43.6699 32.4857 43.8206 31.9691C43.9713 31.4524 44.2834 31.0649 44.757 30.8066L50.3112 27.5774C50.7848 27.3191 51.28 27.2437 51.7966 27.3514C52.3133 27.459 52.7008 27.7496 52.9591 28.2232L56.1237 33.5191C56.5973 34.251 56.8557 35.0691 56.8987 35.9732C56.9418 36.8774 56.748 37.717 56.3175 38.492C55.8869 39.3531 55.2518 40.042 54.4123 40.5587C53.5727 41.0753 52.6577 41.3337 51.6675 41.3337H48.7612ZM39.655 57.7378L32.357 50.4399C31.9695 50.0524 31.7758 49.6003 31.7758 49.0837C31.7758 48.567 31.9695 48.1149 32.357 47.7274L39.655 40.4295C39.9564 40.1281 40.3116 40.0528 40.7206 40.2034C41.1296 40.3541 41.3341 40.6448 41.3341 41.0753V43.917H53.605L49.8591 51.4087C49.3855 52.2698 48.7397 52.9587 47.9216 53.4753C47.1036 53.992 46.1994 54.2503 45.2091 54.2503H41.3341V57.092C41.3341 57.5225 41.1296 57.8132 40.7206 57.9639C40.3116 58.1146 39.9564 58.0392 39.655 57.7378ZM16.3404 54.2503C15.4793 54.2503 14.6935 54.0243 13.9831 53.5722C13.2727 53.1201 12.7452 52.5281 12.4008 51.7962C12.0564 51.1073 11.8949 50.3861 11.9164 49.6326C11.9379 48.8791 12.1425 48.1795 12.53 47.5337L14.7258 43.917H23.8966C24.4564 43.917 24.9192 44.1 25.2852 44.466C25.6511 44.8319 25.8341 45.2948 25.8341 45.8545V52.3128C25.8341 52.8725 25.6511 53.3354 25.2852 53.7014C24.9192 54.0673 24.4564 54.2503 23.8966 54.2503H16.3404ZM9.94663 46.8878L5.74871 38.492C5.36121 37.717 5.17823 36.8882 5.19975 36.0055C5.22128 35.1229 5.46885 34.2941 5.94246 33.5191L6.9758 31.7753L4.58621 30.3545C4.24177 30.1392 4.09107 29.8055 4.13413 29.3535C4.17718 28.9014 4.41399 28.6323 4.84455 28.5462L14.855 26.0274C15.3716 25.8982 15.856 25.9736 16.3081 26.2535C16.7602 26.5333 17.0508 26.9316 17.18 27.4482L19.6987 37.5232C19.7848 37.9538 19.6557 38.2875 19.3112 38.5243C18.9668 38.7611 18.6223 38.7719 18.2779 38.5566L15.8237 37.0712L9.94663 46.8878ZM42.9487 24.3482L32.9383 21.8295C32.5077 21.7434 32.2602 21.4743 32.1956 21.0222C32.131 20.5701 32.2925 20.2364 32.68 20.0212L35.1341 18.6003L27.0612 5.16699H36.1675C37.0716 5.16699 37.922 5.39303 38.7185 5.84512C39.515 6.2972 40.1501 6.91074 40.6237 7.68574L43.982 13.3045L46.3716 11.8191C46.7161 11.6038 47.0605 11.6253 47.405 11.8837C47.7494 12.142 47.8786 12.4864 47.7925 12.917L45.2737 22.9274C45.1445 23.4441 44.8539 23.8423 44.4018 24.1222C43.9498 24.4021 43.4654 24.4774 42.9487 24.3482Z" fill="#1C1B1F"/>
</g>
</svg>
