<svg width="62" height="62" viewBox="0 0 62 62" fill="none" xmlns="http://www.w3.org/2000/svg">
<mask id="mask0_525_1423" style="mask-type:alpha" maskUnits="userSpaceOnUse" x="0" y="0" width="62" height="62">
<rect width="62" height="62" fill="#D9D9D9"/>
</mask>
<g mask="url(#mask0_525_1423)">
<path d="M34.8753 56.7686C30.0531 56.7686 26.0489 55.0787 22.8628 51.6988C19.6767 48.3189 18.0837 44.2825 18.0837 39.5894V37.329C14.4239 36.8554 11.3562 35.23 8.88053 32.453C6.40484 29.6759 5.16699 26.3929 5.16699 22.604V9.68734C5.16699 9.12762 5.34998 8.66477 5.71595 8.2988C6.08192 7.93282 6.54477 7.74984 7.10449 7.74984H12.917V7.104C12.917 6.54428 13.1 6.08143 13.466 5.71546C13.8319 5.34949 14.2948 5.1665 14.8545 5.1665C15.4142 5.1665 15.8771 5.34949 16.243 5.71546C16.609 6.08143 16.792 6.54428 16.792 7.104V12.2707C16.792 12.7873 16.609 13.2394 16.243 13.6269C15.8771 14.0144 15.4142 14.2082 14.8545 14.2082C14.2948 14.2082 13.8319 14.0252 13.466 13.6592C13.1 13.2932 12.917 12.8304 12.917 12.2707V11.6248H9.04199V22.604C9.04199 25.6609 10.1076 28.255 12.2389 30.3863C14.3701 32.5175 16.9642 33.5832 20.0212 33.5832C23.0781 33.5832 25.6722 32.5175 27.8035 30.3863C29.9347 28.255 31.0003 25.6609 31.0003 22.604V11.6248H27.1253V12.2707C27.1253 12.7873 26.9423 13.2394 26.5764 13.6269C26.2104 14.0144 25.7475 14.2082 25.1878 14.2082C24.6281 14.2082 24.1653 14.0252 23.7993 13.6592C23.4333 13.2932 23.2503 12.8304 23.2503 12.2707V7.104C23.2503 6.54428 23.4333 6.08143 23.7993 5.71546C24.1653 5.34949 24.6281 5.1665 25.1878 5.1665C25.7475 5.1665 26.2104 5.34949 26.5764 5.71546C26.9423 6.08143 27.1253 6.54428 27.1253 7.104V7.74984H32.9378C33.4975 7.74984 33.9604 7.93282 34.3264 8.2988C34.6923 8.66477 34.8753 9.12762 34.8753 9.68734V22.604C34.8753 26.3929 33.6375 29.6759 31.1618 32.453C28.6861 35.23 25.6184 36.8554 21.9587 37.329V39.5894C21.9587 43.2491 23.175 46.3814 25.6076 48.9863C28.0403 51.5912 31.1295 52.8936 34.8753 52.8936C38.3628 52.8936 41.3875 51.6019 43.9493 49.0186C46.5111 46.4353 47.792 43.2922 47.792 39.5894V34.6165C46.285 34.186 45.0472 33.3464 44.0785 32.0978C43.1097 30.8491 42.6253 29.4068 42.6253 27.7707C42.6253 25.7901 43.3142 24.111 44.692 22.7332C46.0698 21.3554 47.7489 20.6665 49.7295 20.6665C51.71 20.6665 53.3892 21.3554 54.767 22.7332C56.1448 24.111 56.8337 25.7901 56.8337 27.7707C56.8337 29.4068 56.3493 30.8491 55.3805 32.0978C54.4118 33.3464 53.1739 34.186 51.667 34.6165V39.5894C51.667 44.3686 50.0201 48.4266 46.7264 51.7634C43.4326 55.1002 39.4823 56.7686 34.8753 56.7686Z" fill="black"/>
</g>
</svg>
