<svg width="62" height="62" viewBox="0 0 62 62" fill="none" xmlns="http://www.w3.org/2000/svg">
<mask id="mask0_533_2201" style="mask-type:alpha" maskUnits="userSpaceOnUse" x="0" y="0" width="62" height="62">
<rect width="62" height="62" fill="#D9D9D9"/>
</mask>
<g mask="url(#mask0_533_2201)">
<path d="M13.7564 54.25C12.8953 54.25 12.1741 53.9593 11.5928 53.3781C11.0116 52.7968 10.721 52.0757 10.721 51.2145C10.721 50.3534 11.0116 49.6323 11.5928 49.051C12.1741 48.4698 12.8953 48.1791 13.7564 48.1791H18.923L12.0772 24.8C10.6994 24.1541 9.62305 23.2823 8.84805 22.1843C8.07305 21.0864 7.68555 19.6333 7.68555 17.825C7.68555 15.8013 8.42826 14.0468 9.91367 12.5614C11.3991 11.076 13.1536 10.3333 15.1772 10.3333C17.0717 10.3333 18.6432 10.8392 19.8918 11.851C21.1404 12.8628 21.98 14.2083 22.4105 15.8875H31.8397V12.077C31.8397 11.5604 32.0335 11.1083 32.421 10.7208C32.8085 10.3333 33.2605 10.1395 33.7772 10.1395C34.2508 10.1395 34.6491 10.3225 34.972 10.6885C35.2949 11.0545 35.4564 11.4743 35.4564 11.9479L40.3001 7.29788C40.6446 6.95343 41.0859 6.72739 41.6241 6.61975C42.1623 6.51211 42.7112 6.58746 43.271 6.8458L53.4751 11.7541C53.8626 11.9694 54.1317 12.2708 54.2824 12.6583C54.4331 13.0458 54.4008 13.4548 54.1856 13.8854C53.9703 14.3159 53.6581 14.5743 53.2491 14.6604C52.8401 14.7465 52.4418 14.6819 52.0543 14.4666L42.0439 9.62288L35.7147 16.0166V19.375L42.0439 26.027L52.0543 21.1187C52.4849 20.9034 52.8939 20.8496 53.2814 20.9573C53.6689 21.0649 53.9703 21.334 54.1856 21.7645C54.4008 22.1951 54.4331 22.6257 54.2824 23.0562C54.1317 23.4868 53.8411 23.8097 53.4105 24.025L43.5293 28.675C42.9265 28.9764 42.3453 29.1163 41.7855 29.0948C41.2258 29.0732 40.7307 28.8472 40.3001 28.4166L35.4564 23.7666C35.4564 24.3694 35.2949 24.8215 34.972 25.1229C34.6491 25.4243 34.2508 25.575 33.7772 25.575C33.2605 25.575 32.8085 25.3812 32.421 24.9937C32.0335 24.6062 31.8397 24.1541 31.8397 23.6375V19.7625H22.2814C22.2814 20.2791 22.1415 20.8066 21.8616 21.3448C21.5817 21.8829 21.248 22.3243 20.8605 22.6687L34.1001 48.1791H41.2689C42.13 48.1791 42.8512 48.4698 43.4324 49.051C44.0137 49.6323 44.3043 50.3534 44.3043 51.2145C44.3043 52.0757 44.0137 52.7968 43.4324 53.3781C42.8512 53.9593 42.13 54.25 41.2689 54.25H13.7564ZM17.7605 20.4083C18.4494 19.7194 18.7939 18.8583 18.7939 17.825C18.7939 16.7916 18.4494 15.9305 17.7605 15.2416C17.0717 14.5527 16.2105 14.2083 15.1772 14.2083C14.1439 14.2083 13.2828 14.5527 12.5939 15.2416C11.905 15.9305 11.5605 16.7916 11.5605 17.825C11.5605 18.8583 11.905 19.7194 12.5939 20.4083C13.2828 21.0972 14.1439 21.4416 15.1772 21.4416C16.2105 21.4416 17.0717 21.0972 17.7605 20.4083Z" fill="#1C1B1F"/>
</g>
</svg>
