<svg width="62" height="62" viewBox="0 0 62 62" fill="none" xmlns="http://www.w3.org/2000/svg">
<mask id="mask0_525_1429" style="mask-type:alpha" maskUnits="userSpaceOnUse" x="0" y="0" width="62" height="62">
<rect width="62" height="62" fill="#D9D9D9"/>
</mask>
<g mask="url(#mask0_525_1429)">
<path d="M5.16699 29.0627V14.2085C5.16699 13.1752 5.55449 12.271 6.32949 11.496C7.10449 10.721 8.00866 10.3335 9.04199 10.3335H52.9587C53.992 10.3335 54.8962 10.721 55.6712 11.496C56.4462 12.271 56.8337 13.1752 56.8337 14.2085V30.8064C56.8337 31.4092 56.5969 31.8828 56.1232 32.2272C55.6496 32.5717 55.1114 32.6578 54.5087 32.4856C54.1642 32.3995 53.7982 32.3349 53.4107 32.2918C53.0232 32.2488 52.6573 32.2272 52.3128 32.2272C51.2795 32.2272 50.2677 32.3779 49.2774 32.6793C48.2871 32.9807 47.3614 33.4113 46.5003 33.971C45.9837 33.6266 45.467 33.3467 44.9503 33.1314C44.4337 32.9161 43.8739 32.7439 43.2712 32.6147V31.0002C43.2712 30.4404 43.0882 29.9776 42.7222 29.6116C42.3562 29.2456 41.8934 29.0627 41.3337 29.0627H34.8107L30.1607 19.7627C29.9885 19.4182 29.7409 19.1814 29.418 19.0522C29.0951 18.9231 28.7614 18.8585 28.417 18.8585C28.0725 18.8585 27.7389 18.9231 27.416 19.0522C27.093 19.1814 26.8455 19.4182 26.6732 19.7627L18.0837 37.0064L14.6607 30.096C14.4885 29.7516 14.241 29.4932 13.918 29.321C13.5951 29.1488 13.2614 29.0627 12.917 29.0627H5.16699ZM9.04199 51.6668C8.00866 51.6668 7.10449 51.2793 6.32949 50.5043C5.55449 49.7293 5.16699 48.8252 5.16699 47.7918V32.9377H11.6899L16.3399 42.2377C16.5121 42.5821 16.7597 42.8404 17.0826 43.0127C17.4055 43.1849 17.7392 43.271 18.0837 43.271C18.4281 43.271 18.7618 43.1849 19.0847 43.0127C19.4076 42.8404 19.6552 42.5821 19.8274 42.2377L28.417 24.9939L31.8399 31.9043C32.0121 32.2488 32.2597 32.5071 32.5826 32.6793C32.9055 32.8516 33.2392 32.9377 33.5837 32.9377H37.0066C34.8538 33.7127 33.0993 35.0259 31.743 36.8772C30.3868 38.7286 29.7087 40.8599 29.7087 43.271C29.7087 44.5196 29.8701 45.6283 30.193 46.597C30.5159 47.5658 30.9788 48.4807 31.5816 49.3418C31.926 49.8154 31.9798 50.3213 31.743 50.8595C31.5062 51.3977 31.108 51.6668 30.5482 51.6668H9.04199ZM40.6878 36.1668C41.8503 36.1668 42.9267 36.4252 43.917 36.9418C44.9073 37.4585 45.7684 38.212 46.5003 39.2022C47.2323 38.212 48.0934 37.4585 49.0837 36.9418C50.0739 36.4252 51.1503 36.1668 52.3128 36.1668C54.2934 36.1668 55.9725 36.8557 57.3503 38.2335C58.7281 39.6113 59.417 41.2904 59.417 43.271C59.417 44.821 58.8573 46.3172 57.7378 47.7595C56.6184 49.2019 54.1642 51.5377 50.3753 54.7668L47.792 57.0272C47.4475 57.3717 47.017 57.5439 46.5003 57.5439C45.9837 57.5439 45.5531 57.3717 45.2087 57.0272L42.6253 54.7668C38.8364 51.5377 36.3823 49.2019 35.2628 47.7595C34.1434 46.3172 33.5837 44.821 33.5837 43.271C33.5837 41.2904 34.2725 39.6113 35.6503 38.2335C37.0281 36.8557 38.7073 36.1668 40.6878 36.1668Z" fill="black"/>
</g>
</svg>
