<svg width="62" height="62" viewBox="0 0 62 62" fill="none" xmlns="http://www.w3.org/2000/svg">
<mask id="mask0_533_2207" style="mask-type:alpha" maskUnits="userSpaceOnUse" x="0" y="0" width="62" height="62">
<rect width="62" height="62" fill="#D9D9D9"/>
</mask>
<g mask="url(#mask0_533_2207)">
<path d="M46.6288 21.0541C47.4038 22.3027 48.0065 23.6374 48.4371 25.0583C48.8676 26.4791 49.0829 27.9645 49.0829 29.5145V53.927C49.0829 54.7451 48.8031 55.4339 48.2433 55.9937C47.6836 56.5534 46.9947 56.8333 46.1767 56.8333H27.2538C26.7371 56.8333 26.2742 56.6826 25.8652 56.3812C25.4562 56.0798 25.1656 55.6708 24.9933 55.1541C24.4336 53.3027 24.0246 51.4836 23.7663 49.6968C23.5079 47.91 23.3465 46.2093 23.2819 44.5947C23.2173 42.9801 23.2173 41.5055 23.2819 40.1708C23.3465 38.836 23.4433 37.6951 23.5725 36.7478C23.5725 36.7048 23.5725 36.7048 23.5725 36.7478C21.8933 36.4034 19.7621 35.7899 17.1788 34.9072C14.5954 34.0246 12.0121 32.7006 9.42876 30.9353C8.86904 30.5478 8.54612 30.0312 8.46001 29.3853C8.3739 28.7395 8.52459 28.1367 8.91209 27.577L21.8288 9.62284C22.2593 9.06312 22.8083 8.68638 23.4756 8.49263C24.143 8.29888 24.7996 8.3527 25.4454 8.65409L40.0413 15.3708C41.419 15.9735 42.6676 16.7593 43.7871 17.728C44.9065 18.6968 45.8538 19.8055 46.6288 21.0541ZM35.1975 49.0187C35.542 49.0187 35.8541 48.9326 36.134 48.7603C36.4138 48.5881 36.6399 48.3728 36.8121 48.1145C37.0274 48.3728 37.2642 48.5881 37.5225 48.7603C37.7808 48.9326 38.0822 49.0187 38.4267 49.0187C38.9864 49.0187 39.4492 48.8249 39.8152 48.4374C40.1812 48.0499 40.3642 47.5978 40.3642 47.0812C40.3642 46.5214 40.1812 46.0586 39.8152 45.6926C39.4492 45.3267 38.9864 45.1437 38.4267 45.1437H38.1038V32.2916H38.4267C38.9864 32.2916 39.4492 32.0978 39.8152 31.7103C40.1812 31.3228 40.3642 30.8708 40.3642 30.3541C40.3642 29.7944 40.1812 29.3315 39.8152 28.9655C39.4492 28.5996 38.9864 28.4166 38.4267 28.4166C38.0822 28.4166 37.7808 28.4919 37.5225 28.6426C37.2642 28.7933 37.0274 28.9978 36.8121 29.2562C36.6399 28.9978 36.4138 28.7933 36.134 28.6426C35.8541 28.4919 35.542 28.4166 35.1975 28.4166C34.6808 28.4166 34.2288 28.5996 33.8413 28.9655C33.4538 29.3315 33.26 29.7944 33.26 30.3541C33.26 30.8708 33.4538 31.3228 33.8413 31.7103C34.2288 32.0978 34.6808 32.2916 35.1975 32.2916H35.5204V45.1437H35.1975C34.6808 45.1437 34.2288 45.3267 33.8413 45.6926C33.4538 46.0586 33.26 46.5214 33.26 47.0812C33.26 47.5978 33.4538 48.0499 33.8413 48.4374C34.2288 48.8249 34.6808 49.0187 35.1975 49.0187Z" fill="#1C1B1F"/>
</g>
</svg>
