<svg width="62" height="62" viewBox="0 0 62 62" fill="none" xmlns="http://www.w3.org/2000/svg">
<mask id="mask0_525_1435" style="mask-type:alpha" maskUnits="userSpaceOnUse" x="0" y="0" width="62" height="62">
<rect width="62" height="62" fill="#D9D9D9"/>
</mask>
<g mask="url(#mask0_525_1435)">
<path d="M39.0087 50.375V46.1771H32.9378C31.8722 46.1771 30.9601 45.7975 30.2014 45.0385C29.4424 44.2798 29.0628 43.3677 29.0628 42.3021V19.6979H23.0566V24.2188C23.0566 25.2844 22.6773 26.1965 21.9186 26.9551C21.1595 27.7142 20.2472 28.0938 19.1816 28.0938H9.04199C7.97637 28.0938 7.06424 27.7142 6.3056 26.9551C5.54653 26.1965 5.16699 25.2844 5.16699 24.2188V11.625C5.16699 10.5594 5.54653 9.64703 6.3056 8.88796C7.06424 8.12932 7.97637 7.75 9.04199 7.75H19.1816C20.2472 7.75 21.1595 8.12932 21.9186 8.88796C22.6773 9.64703 23.0566 10.5594 23.0566 11.625V15.8229H39.0087V11.625C39.0087 10.5594 39.3882 9.64703 40.1473 8.88796C40.9059 8.12932 41.818 7.75 42.8837 7.75H52.9587C54.0243 7.75 54.9366 8.12932 55.6957 8.88796C56.4543 9.64703 56.8337 10.5594 56.8337 11.625V24.2188C56.8337 25.2844 56.4543 26.1965 55.6957 26.9551C54.9366 27.7142 54.0243 28.0938 52.9587 28.0938H42.8837C41.818 28.0938 40.9059 27.7142 40.1473 26.9551C39.3882 26.1965 39.0087 25.2844 39.0087 24.2188V19.6979H32.9378V42.3021H39.0087V37.7812C39.0087 36.7156 39.3882 35.8033 40.1473 35.0442C40.9059 34.2856 41.818 33.9062 42.8837 33.9062H52.9587C54.0243 33.9062 54.9366 34.2856 55.6957 35.0442C56.4543 35.8033 56.8337 36.7156 56.8337 37.7812V50.375C56.8337 51.4406 56.4543 52.3528 55.6957 53.1114C54.9366 53.8705 54.0243 54.25 52.9587 54.25H42.8837C41.818 54.25 40.9059 53.8705 40.1473 53.1114C39.3882 52.3528 39.0087 51.4406 39.0087 50.375Z" fill="black"/>
</g>
</svg>
