<svg width="62" height="62" viewBox="0 0 62 62" fill="none" xmlns="http://www.w3.org/2000/svg">
<mask id="mask0_533_2213" style="mask-type:alpha" maskUnits="userSpaceOnUse" x="0" y="0" width="62" height="62">
<rect width="62" height="62" fill="#D9D9D9"/>
</mask>
<g mask="url(#mask0_533_2213)">
<path d="M16.1459 25.2521L12.0772 27.5125C11.4744 27.8569 10.8393 27.9538 10.172 27.8031C9.50462 27.6524 9.04178 27.2972 8.78344 26.7375L4.32719 19.0521C3.98275 18.4493 3.88587 17.9326 4.03657 17.5021C4.18726 17.0715 4.54247 16.684 5.10219 16.3396L19.8272 7.75H23.9605C24.4341 7.75 24.8109 7.88993 25.0907 8.16979C25.3706 8.44965 25.5105 8.82639 25.5105 9.3V10.2687C25.5105 11.9049 26.0272 13.2396 27.0605 14.2729C28.0939 15.3063 29.4286 15.8229 31.0647 15.8229C32.7008 15.8229 34.0248 15.3063 35.0366 14.2729C36.0484 13.2396 36.5543 11.9049 36.5543 10.2687V9.3C36.5543 8.82639 36.6942 8.44965 36.9741 8.16979C37.2539 7.88993 37.6307 7.75 38.1043 7.75H42.2376L56.9626 16.3396C57.5223 16.684 57.8668 17.0715 57.9959 17.5021C58.1251 17.9326 58.039 18.4493 57.7376 19.0521L53.2168 26.7375C52.9584 27.2972 52.4202 27.6632 51.6022 27.8354C50.7841 28.0076 50.1383 27.9431 49.6647 27.6417L45.6605 25.1229V51.7312C45.6605 52.4201 45.4022 53.0121 44.8855 53.5073C44.3689 54.0024 43.7661 54.25 43.0772 54.25H18.6647C17.9758 54.25 17.3838 54.0024 16.8887 53.5073C16.3935 53.0121 16.1459 52.4201 16.1459 51.7312V25.2521Z" fill="#1C1B1F"/>
</g>
</svg>
