<svg width="62" height="62" viewBox="0 0 62 62" fill="none" xmlns="http://www.w3.org/2000/svg">
<mask id="mask0_525_1506" style="mask-type:alpha" maskUnits="userSpaceOnUse" x="0" y="0" width="62" height="62">
<rect width="62" height="62" fill="#D9D9D9"/>
</mask>
<g mask="url(#mask0_525_1506)">
<path d="M31.0649 51.7312C29.7732 52.5924 28.3955 53.2274 26.9316 53.6365C25.4677 54.0455 23.9607 54.25 22.4107 54.25C20.9038 54.25 19.4076 54.0347 17.9222 53.6042C16.4368 53.1736 15.0482 52.5493 13.7566 51.7312C12.7232 52.334 11.6469 52.8184 10.5274 53.1844C9.40796 53.5503 8.26699 53.841 7.10449 54.0563C6.58783 54.1424 6.13574 54.0024 5.74824 53.6365C5.36074 53.2705 5.16699 52.8292 5.16699 52.3125C5.16699 51.7528 5.34998 51.2684 5.71595 50.8594C6.08192 50.4503 6.54477 50.2028 7.10449 50.1167C8.00866 49.9444 8.88053 49.6861 9.72012 49.3417C10.5597 48.9972 11.367 48.5882 12.142 48.1146C12.6156 47.8132 13.1538 47.6517 13.7566 47.6302C14.3594 47.6087 14.8975 47.7701 15.3712 48.1146C16.4475 48.8035 17.5778 49.3417 18.7618 49.7292C19.9458 50.1167 21.1621 50.3104 22.4107 50.3104C23.6594 50.3104 24.8757 50.1274 26.0597 49.7615C27.2437 49.3955 28.3739 48.8681 29.4503 48.1792C29.967 47.8347 30.5267 47.6733 31.1295 47.6948C31.7323 47.7163 32.292 47.8993 32.8087 48.2437C33.842 48.9326 34.9399 49.4493 36.1024 49.7937C37.2649 50.1382 38.4705 50.3104 39.7191 50.3104C41.0969 50.3104 42.4208 50.0521 43.691 49.5354C44.9611 49.0188 46.1559 48.3944 47.2753 47.6625C47.6198 47.4472 47.9857 47.3396 48.3732 47.3396C48.7607 47.3396 49.1267 47.4472 49.4712 47.6625C50.3323 48.2222 51.2041 48.7174 52.0868 49.1479C52.9694 49.5785 53.9059 49.9014 54.8962 50.1167C55.4559 50.2458 55.9187 50.5042 56.2847 50.8917C56.6507 51.2792 56.8337 51.7528 56.8337 52.3125C56.8337 52.8722 56.6292 53.3243 56.2201 53.6687C55.8111 54.0132 55.3482 54.1424 54.8316 54.0563C53.7121 53.841 52.6035 53.5503 51.5055 53.1844C50.4076 52.8184 49.3635 52.334 48.3732 51.7312C47.0385 52.5062 45.6392 53.1198 44.1753 53.5719C42.7114 54.024 41.226 54.25 39.7191 54.25C38.2121 54.25 36.7267 54.024 35.2628 53.5719C33.7989 53.1198 32.3996 52.5062 31.0649 51.7312ZM5.16699 41.9792V37.4583C5.16699 33.3681 5.99581 29.5253 7.65345 25.9302C9.31109 22.3351 11.55 19.192 14.3701 16.501C17.1903 13.8101 20.484 11.6788 24.2514 10.1073C28.0187 8.53576 31.9906 7.75 36.167 7.75C36.8989 7.75 37.6416 7.77153 38.3951 7.81458C39.1486 7.85764 39.8913 7.92222 40.6232 8.00833C41.2691 8.09444 41.7427 8.41736 42.0441 8.97708C42.3455 9.53681 42.367 10.1181 42.1087 10.7208C41.6351 11.7111 41.2798 12.6583 41.043 13.5625C40.8062 14.4667 40.6878 15.4785 40.6878 16.5979C40.6878 19.1382 41.592 21.4201 43.4003 23.4438C45.2087 25.4674 47.383 26.4792 49.9232 26.4792H54.8962C55.4559 26.4792 55.9187 26.6622 56.2847 27.0281C56.6507 27.3941 56.8337 27.8569 56.8337 28.4167C56.8337 28.9764 56.6507 29.4392 56.2847 29.8052C55.9187 30.1712 55.4559 30.3542 54.8962 30.3542H49.9232C46.2635 30.3542 43.1635 28.9764 40.6232 26.2208C38.083 23.4653 36.8128 20.2576 36.8128 16.5979C36.8128 15.9951 36.8882 15.2847 37.0389 14.4667C37.1896 13.6486 37.3726 12.766 37.5878 11.8187C33.9281 12.6799 30.9465 14.5743 28.643 17.5021C26.3396 20.4299 25.1878 23.6375 25.1878 27.125C25.1878 28.7611 25.4785 30.3542 26.0597 31.9042C26.641 33.4542 27.4698 34.9611 28.5462 36.425L29.9024 35.4562C30.2469 35.241 30.6128 35.1333 31.0003 35.1333C31.3878 35.1333 31.7538 35.241 32.0982 35.4562C33.2177 36.1882 34.4232 36.8017 35.7149 37.2969C37.0066 37.792 38.3413 38.0396 39.7191 38.0396C41.0969 38.0396 42.4316 37.7812 43.7232 37.2646C45.0149 36.7479 46.2205 36.1236 47.3399 35.3917C47.6844 35.1764 48.0288 35.0687 48.3732 35.0687C48.7177 35.0687 49.0621 35.1764 49.4066 35.3917L51.5378 36.6833C52.0976 36.9417 52.6465 37.1677 53.1847 37.3615C53.7229 37.5552 54.2934 37.7167 54.8962 37.8458C55.4559 37.975 55.9187 38.2333 56.2847 38.6208C56.6507 39.0083 56.8337 39.4819 56.8337 40.0417C56.8337 40.6014 56.6292 41.0535 56.2201 41.3979C55.8111 41.7424 55.3482 41.8715 54.8316 41.7854C53.7121 41.5701 52.6035 41.2687 51.5055 40.8812C50.4076 40.4937 49.3635 40.0201 48.3732 39.4604C46.9094 40.3215 45.4778 40.9566 44.0785 41.3656C42.6791 41.7747 41.226 41.9792 39.7191 41.9792C38.2121 41.9792 36.6837 41.7424 35.1337 41.2687C33.5837 40.7951 32.2274 40.1924 31.0649 39.4604C29.6871 40.3215 28.2663 40.9458 26.8024 41.3333C25.3385 41.7208 23.8746 41.9361 22.4107 41.9792C21.033 41.9792 19.5798 41.7531 18.0514 41.301C16.5229 40.849 15.0913 40.2354 13.7566 39.4604C12.508 40.1924 11.0979 40.7736 9.52637 41.2042C7.95484 41.6347 6.50171 41.8931 5.16699 41.9792Z" fill="black"/>
</g>
</svg>
