<svg width="62" height="62" viewBox="0 0 62 62" fill="none" xmlns="http://www.w3.org/2000/svg">
<mask id="mask0_700_1087" style="mask-type:alpha" maskUnits="userSpaceOnUse" x="0" y="0" width="62" height="62">
<rect width="62" height="62" fill="#D9D9D9"/>
</mask>
<g mask="url(#mask0_700_1087)">
<path d="M30.9998 25.1872C32.4637 25.1872 33.6908 24.6705 34.6811 23.6372C35.6714 22.6038 36.1665 21.3983 36.1665 20.0205C36.1665 18.5566 35.6714 17.3295 34.6811 16.3393C33.6908 15.349 32.4637 14.8538 30.9998 14.8538C29.6221 14.8538 28.4165 15.349 27.3832 16.3393C26.3498 17.3295 25.8332 18.5566 25.8332 20.0205C25.8332 21.3983 26.3498 22.6038 27.3832 23.6372C28.4165 24.6705 29.6221 25.1872 30.9998 25.1872ZM26.7696 36.0695C25.4995 35.1438 24.563 33.9275 23.9603 32.4205C23.7019 32.4205 23.4328 32.4313 23.153 32.4528C22.8731 32.4743 22.604 32.4851 22.3457 32.4851C20.279 32.4851 18.5137 31.7531 17.0498 30.2893C15.586 28.8254 14.854 27.0601 14.854 24.9934C14.854 24.1323 15.0262 23.282 15.3707 22.4424C15.7151 21.6028 16.2103 20.7955 16.8561 20.0205C16.2533 19.2455 15.7797 18.4382 15.4353 17.5986C15.0908 16.759 14.9186 15.9087 14.9186 15.0476C14.9186 12.9809 15.6398 11.2156 17.0821 9.75176C18.5245 8.28787 20.279 7.55592 22.3457 7.55592C22.604 7.55592 22.8731 7.56669 23.153 7.58822C23.4328 7.60974 23.7019 7.62051 23.9603 7.62051C24.563 6.11356 25.4995 4.89724 26.7696 3.97155C28.0398 3.04586 29.4498 2.58301 30.9998 2.58301C32.5498 2.58301 33.9599 3.04586 35.2301 3.97155C36.5002 4.89724 37.4367 6.11356 38.0394 7.62051C38.2978 7.62051 38.5669 7.60974 38.8467 7.58822C39.1266 7.56669 39.3957 7.55592 39.654 7.55592C41.7207 7.55592 43.4752 8.28787 44.9176 9.75176C46.3599 11.2156 47.0811 12.9809 47.0811 15.0476C47.0811 15.9087 46.9196 16.759 46.5967 17.5986C46.2738 18.4382 45.7894 19.2455 45.1436 20.0205C45.7464 20.7955 46.22 21.6028 46.5644 22.4424C46.9089 23.282 47.0811 24.1323 47.0811 24.9934C47.0811 27.0601 46.3599 28.8254 44.9176 30.2893C43.4752 31.7531 41.7207 32.4851 39.654 32.4851C39.3957 32.4851 39.1266 32.4743 38.8467 32.4528C38.5669 32.4313 38.2978 32.4205 38.0394 32.4205C37.4367 33.9275 36.5002 35.1438 35.2301 36.0695C33.9599 36.9952 32.5498 37.458 30.9998 37.458C29.4498 37.458 28.0398 36.9952 26.7696 36.0695ZM30.9998 56.833C30.9998 51.5372 32.8405 46.6934 36.5217 42.3018C40.203 37.9101 44.6054 35.1761 49.729 34.0997C50.3318 33.9705 50.9238 33.9597 51.5051 34.0674C52.0863 34.175 52.5707 34.4656 52.9582 34.9393C53.3887 35.4129 53.6471 35.9403 53.7332 36.5215C53.8193 37.1028 53.7978 37.6948 53.6686 38.2976C52.5492 43.3781 49.7936 47.7375 45.4019 51.3757C41.0103 55.0139 36.2096 56.833 30.9998 56.833ZM30.9998 56.833C30.9998 51.5372 29.1592 46.6934 25.478 42.3018C21.7967 37.9101 17.3943 35.1761 12.2707 34.0997C11.6679 33.9705 11.0759 33.9597 10.4946 34.0674C9.91339 34.175 9.42901 34.4656 9.04151 34.9393C8.61095 35.4129 8.35262 35.9511 8.26651 36.5538C8.1804 37.1566 8.20193 37.7594 8.33109 38.3622C9.45054 43.4427 12.2061 47.7913 16.5978 51.408C20.9894 55.0247 25.7901 56.833 30.9998 56.833Z" fill="black"/>
</g>
</svg>
