<svg width="62" height="62" viewBox="0 0 62 62" fill="none" xmlns="http://www.w3.org/2000/svg">
<mask id="mask0_700_1093" style="mask-type:alpha" maskUnits="userSpaceOnUse" x="0" y="0" width="62" height="62">
<rect width="62" height="62" fill="#D9D9D9"/>
</mask>
<g mask="url(#mask0_700_1093)">
<path d="M41.7862 29.967H50.8279L54.1216 23.8962C54.4661 23.2934 54.6383 22.6691 54.6383 22.0232C54.6383 21.3774 54.4661 20.7531 54.1216 20.1503L51.9258 16.0816C51.5813 15.4788 51.1077 14.9944 50.5049 14.6285C49.9022 14.2625 49.2348 14.0795 48.5029 14.0795H41.7862L37.4591 22.0232L41.7862 29.967ZM26.4799 39.0087H35.5216L39.8487 31.0003L35.5216 22.992H26.4799L22.1529 31.0003L26.4799 39.0087ZM26.4799 21.0545H35.5216L39.8487 13.1107L36.6195 7.16908C36.2751 6.5663 35.8015 6.08192 35.1987 5.71595C34.5959 5.34998 33.9286 5.16699 33.1966 5.16699H28.805C28.073 5.16699 27.4056 5.34998 26.8029 5.71595C26.2001 6.08192 25.7265 6.5663 25.382 7.16908L22.1529 13.1107L26.4799 21.0545ZM24.5424 22.0232L20.2154 14.0795H13.4987C12.7668 14.0795 12.0994 14.2625 11.4966 14.6285C10.8938 14.9944 10.4202 15.4788 10.0758 16.0816L7.87995 20.1503C7.5355 20.7531 7.36328 21.3774 7.36328 22.0232C7.36328 22.6691 7.5355 23.2934 7.87995 23.8962L11.1737 29.967H20.2154L24.5424 22.0232ZM24.5424 39.9774L20.2154 32.0337H11.1737L7.87995 38.1045C7.5355 38.7073 7.36328 39.3316 7.36328 39.9774C7.36328 40.6232 7.5355 41.2475 7.87995 41.8503L10.0758 45.9191C10.4202 46.5219 10.8938 47.0062 11.4966 47.3722C12.0994 47.7382 12.7668 47.9212 13.4987 47.9212H20.2154L24.5424 39.9774ZM26.4799 40.9462L22.1529 48.8899L25.4466 54.8316C25.7911 55.4344 26.2539 55.9187 26.8352 56.2847C27.4164 56.6507 28.073 56.8337 28.805 56.8337H33.1966C33.9286 56.8337 34.5959 56.6507 35.1987 56.2847C35.8015 55.9187 36.2751 55.4344 36.6195 54.8316L39.8487 48.8899L35.5216 40.9462H26.4799ZM41.7862 47.9212H48.5029C49.2348 47.9212 49.9022 47.7382 50.5049 47.3722C51.1077 47.0062 51.5813 46.5219 51.9258 45.9191L54.1216 41.8503C54.4661 41.2475 54.6383 40.6232 54.6383 39.9774C54.6383 39.3316 54.4661 38.7073 54.1216 38.1045L50.8279 32.0337H41.7862L37.4591 39.9774L41.7862 47.9212Z" fill="black"/>
</g>
</svg>
