<svg width="62" height="62" viewBox="0 0 62 62" fill="none" xmlns="http://www.w3.org/2000/svg">
<mask id="mask0_700_1099" style="mask-type:alpha" maskUnits="userSpaceOnUse" x="0" y="0" width="62" height="62">
<rect width="62" height="62" fill="#D9D9D9"/>
</mask>
<g mask="url(#mask0_700_1099)">
<path d="M35.844 9.62318C35.3704 16.6412 32.6794 22.626 27.7711 27.5773C22.8628 32.5287 16.9211 35.2843 9.94609 35.844C9.34332 35.8871 8.82665 35.7256 8.39609 35.3596C7.96554 34.9937 7.75026 34.5308 7.75026 33.9711C7.75026 33.4544 7.93325 33.0023 8.29922 32.6148C8.66519 32.2273 9.10651 32.0121 9.62318 31.969C15.5648 31.4954 20.6562 29.1596 24.8971 24.9617C29.1381 20.7638 31.4954 15.694 31.969 9.75234C32.0121 9.19262 32.2166 8.71901 32.5826 8.33151C32.9485 7.94401 33.4114 7.75026 33.9711 7.75026C34.4878 7.75026 34.9398 7.93325 35.3273 8.29922C35.7148 8.66519 35.8871 9.10651 35.844 9.62318ZM28.094 9.75234C27.6204 14.6607 25.6506 18.8263 22.1846 22.2492C18.7187 25.6721 14.5315 27.6204 9.62318 28.094C9.10651 28.1371 8.66519 27.9756 8.29922 27.6096C7.93325 27.2437 7.75026 26.7808 7.75026 26.2211C7.75026 25.7044 7.91172 25.2631 8.23464 24.8971C8.55755 24.5312 8.97734 24.3051 9.49401 24.219C13.326 23.7885 16.6089 22.2062 19.343 19.4721C22.077 16.7381 23.6808 13.4551 24.1544 9.62318C24.2405 9.10651 24.4773 8.66519 24.8648 8.29922C25.2523 7.93325 25.7044 7.75026 26.2211 7.75026C26.7808 7.75026 27.2544 7.94401 27.6419 8.33151C28.0294 8.71901 28.1801 9.19262 28.094 9.75234ZM28.0294 54.2503C27.4697 54.2503 27.0069 54.035 26.6409 53.6044C26.2749 53.1739 26.1135 52.6572 26.1565 52.0544C26.7162 45.0794 29.4718 39.1378 34.4232 34.2294C39.3746 29.3211 45.3593 26.6301 52.3773 26.1565C52.894 26.1135 53.3353 26.2857 53.7013 26.6732C54.0673 27.0607 54.2503 27.5128 54.2503 28.0294C54.2503 28.5892 54.0565 29.052 53.669 29.418C53.2815 29.7839 52.8079 29.9885 52.2482 30.0315C46.3065 30.5051 41.2367 32.8624 37.0388 37.1034C32.8409 41.3444 30.5051 46.4357 30.0315 52.3773C29.9885 52.894 29.7732 53.3353 29.3857 53.7013C28.9982 54.0673 28.5461 54.2503 28.0294 54.2503ZM35.7794 54.2503C35.2197 54.2503 34.7569 54.0673 34.3909 53.7013C34.0249 53.3353 33.8635 52.894 33.9065 52.3773C34.3801 47.469 36.3284 43.2819 39.7513 39.8159C43.1742 36.3499 47.3398 34.3801 52.2482 33.9065C52.8079 33.8204 53.2815 33.9711 53.669 34.3586C54.0565 34.7461 54.2503 35.2197 54.2503 35.7794C54.2503 36.2961 54.0673 36.7482 53.7013 37.1357C53.3353 37.5232 52.894 37.76 52.3773 37.8461C48.5454 38.3197 45.2624 39.9235 42.5284 42.6576C39.7944 45.3916 38.2121 48.6746 37.7815 52.5065C37.6954 53.0232 37.4694 53.443 37.1034 53.7659C36.7374 54.0888 36.2961 54.2503 35.7794 54.2503ZM16.6951 16.6951C15.6402 17.7499 14.3808 18.2773 12.9169 18.2773C11.453 18.2773 10.2044 17.7499 9.17109 16.6951C8.13776 15.6402 7.62109 14.3808 7.62109 12.9169C7.62109 11.453 8.13776 10.2044 9.17109 9.17109C10.2044 8.13776 11.453 7.62109 12.9169 7.62109C14.3808 7.62109 15.6402 8.13776 16.6951 9.17109C17.7499 10.2044 18.2773 11.453 18.2773 12.9169C18.2773 14.3808 17.7499 15.6402 16.6951 16.6951ZM52.8294 52.8294C51.7961 53.8628 50.5475 54.3794 49.0836 54.3794C47.6197 54.3794 46.3603 53.8628 45.3055 52.8294C44.2506 51.7961 43.7232 50.5475 43.7232 49.0836C43.7232 47.6197 44.2506 46.3603 45.3055 45.3055C46.3603 44.2506 47.6197 43.7232 49.0836 43.7232C50.5475 43.7232 51.7961 44.2506 52.8294 45.3055C53.8628 46.3603 54.3794 47.6197 54.3794 49.0836C54.3794 50.5475 53.8628 51.7961 52.8294 52.8294Z" fill="black"/>
</g>
</svg>
