<svg width="62" height="62" viewBox="0 0 62 62" fill="none" xmlns="http://www.w3.org/2000/svg">
<mask id="mask0_525_1304" style="mask-type:alpha" maskUnits="userSpaceOnUse" x="0" y="0" width="62" height="62">
<rect width="62" height="62" fill="#D9D9D9"/>
</mask>
<g mask="url(#mask0_525_1304)">
<path d="M25.5748 56.8337C22.0012 56.8337 18.9981 55.6173 16.5655 53.1847C14.1328 50.7521 12.9165 47.7489 12.9165 44.1753C12.9165 41.8503 13.6162 39.633 15.0155 37.5232C16.4148 35.4135 18.32 33.842 20.7311 32.8087C21.2047 32.5934 21.6783 32.5826 22.1519 32.7764C22.6255 32.9701 22.97 33.3038 23.1853 33.7774C23.4005 34.251 23.4113 34.7246 23.2175 35.1982C23.0238 35.6719 22.6901 36.0163 22.2165 36.2316C20.5804 36.9205 19.278 38.0076 18.3092 39.493C17.3405 40.9785 16.8561 42.5392 16.8561 44.1753C16.8561 46.6726 17.6849 48.7607 19.3425 50.4399C21.0002 52.1191 23.0776 52.9587 25.5748 52.9587C27.2109 52.9587 28.7717 52.4958 30.2571 51.5701C31.7425 50.6444 32.8082 49.3635 33.454 47.7274C33.6693 47.2107 34.0245 46.8448 34.5196 46.6295C35.0148 46.4142 35.4991 46.4142 35.9728 46.6295C36.4464 46.8448 36.78 47.1892 36.9738 47.6628C37.1675 48.1364 37.1568 48.6101 36.9415 49.0837C35.9082 51.4517 34.3366 53.3354 32.2269 54.7347C30.1172 56.134 27.8998 56.8337 25.5748 56.8337ZM45.4988 56.2847C45.1328 55.9187 44.9498 55.4559 44.9498 54.8962V43.3357H31.129C29.8373 43.3357 28.7394 42.8837 27.8353 41.9795C26.9311 41.0753 26.479 39.9774 26.479 38.6857V22.7337C26.479 21.442 26.9311 20.3441 27.8353 19.4399C28.7394 18.5357 29.8373 18.0837 31.129 18.0837C32.1193 18.0837 32.9589 18.2774 33.6478 18.6649C34.3366 19.0524 35.1547 19.8059 36.1019 20.9253C37.695 22.7767 39.4064 24.3698 41.2363 25.7045C43.0662 27.0392 45.0359 27.9003 47.1457 28.2878C47.7054 28.3739 48.1682 28.6107 48.5342 28.9982C48.9002 29.3857 49.0832 29.8594 49.0832 30.4191C49.0832 30.9788 48.8787 31.4416 48.4696 31.8076C48.0606 32.1736 47.5978 32.3135 47.0811 32.2274C45.1436 31.926 43.1953 31.2694 41.2363 30.2576C39.2773 29.2458 37.3936 27.9649 35.5853 26.4149V38.2337H44.1748C45.4665 38.2337 46.5644 38.6857 47.4686 39.5899C48.3728 40.4941 48.8248 41.592 48.8248 42.8837V54.8962C48.8248 55.4559 48.6419 55.9187 48.2759 56.2847C47.9099 56.6507 47.4471 56.8337 46.8873 56.8337C46.3276 56.8337 45.8648 56.6507 45.4988 56.2847ZM27.803 13.2076C26.8773 12.2819 26.4144 11.1732 26.4144 9.88158C26.4144 8.58991 26.8773 7.48123 27.803 6.55553C28.7287 5.62984 29.8373 5.16699 31.129 5.16699C32.4207 5.16699 33.5294 5.62984 34.455 6.55553C35.3807 7.48123 35.8436 8.58991 35.8436 9.88158C35.8436 11.1732 35.3807 12.2819 34.455 13.2076C33.5294 14.1333 32.4207 14.5962 31.129 14.5962C29.8373 14.5962 28.7287 14.1333 27.803 13.2076Z" fill="black"/>
</g>
</svg>
