<svg width="62" height="62" viewBox="0 0 62 62" fill="none" xmlns="http://www.w3.org/2000/svg">
<mask id="mask0_525_1310" style="mask-type:alpha" maskUnits="userSpaceOnUse" x="0" y="0" width="62" height="62">
<rect width="62" height="62" fill="#D9D9D9"/>
</mask>
<g mask="url(#mask0_525_1310)">
<path d="M30.6125 30.6123C31.7319 29.2345 32.5608 27.8137 33.099 26.3498C33.6372 24.8859 33.9062 23.1852 33.9062 21.2477C33.9062 19.3102 33.6372 17.6095 33.099 16.1456C32.5608 14.6817 31.7319 13.2609 30.6125 11.8831C33.8847 11.1512 36.7587 11.6463 39.2344 13.3685C41.7101 15.0908 42.9479 17.7171 42.9479 21.2477C42.9479 24.7783 41.7101 27.4046 39.2344 29.1269C36.7587 30.8491 33.8847 31.3442 30.6125 30.6123ZM43.6583 51.6665C43.8736 51.0206 44.0781 50.3855 44.2719 49.7612C44.4656 49.1369 44.5625 48.4803 44.5625 47.7915V45.5956C44.5625 43.3998 44.0028 41.3546 42.8833 39.4602C41.7639 37.5658 39.8264 35.9727 37.0708 34.681C44.5194 35.6283 49.6108 37.006 52.3448 38.8144C55.0788 40.6227 56.4458 42.8831 56.4458 45.5956V47.7915C56.4458 48.8571 56.0665 49.7692 55.3079 50.5278C54.5488 51.2869 53.6365 51.6665 52.5708 51.6665H43.6583ZM51.6667 26.5435H47.1458C46.5969 26.5435 46.1368 26.3567 45.7657 25.9829C45.3941 25.6097 45.2083 25.1468 45.2083 24.5944C45.2083 24.0424 45.3941 23.5835 45.7657 23.2175C46.1368 22.8515 46.5969 22.6685 47.1458 22.6685H51.6667V18.1477C51.6667 17.5987 51.8535 17.1385 52.2272 16.7669C52.6005 16.3958 53.0634 16.2102 53.6158 16.2102C54.1678 16.2102 54.6267 16.3958 54.9927 16.7669C55.3587 17.1385 55.5417 17.5987 55.5417 18.1477V22.6685H60.0625C60.6115 22.6685 61.0717 22.8554 61.4433 23.2291C61.8144 23.6024 62 24.0653 62 24.6177C62 25.1696 61.8144 25.6286 61.4433 25.9946C61.0717 26.3605 60.6115 26.5435 60.0625 26.5435H55.5417V31.0644C55.5417 31.6133 55.3548 32.0734 54.9811 32.4445C54.6078 32.8161 54.1449 33.0019 53.5925 33.0019C53.0406 33.0019 52.5816 32.8161 52.2156 32.4445C51.8497 32.0734 51.6667 31.6133 51.6667 31.0644V26.5435ZM13.3687 28.2227C11.5604 26.4144 10.6562 24.0894 10.6562 21.2477C10.6562 18.406 11.5604 16.081 13.3687 14.2727C15.1771 12.4644 17.5021 11.5602 20.3438 11.5602C23.1854 11.5602 25.5104 12.4644 27.3187 14.2727C29.1271 16.081 30.0312 18.406 30.0312 21.2477C30.0312 24.0894 29.1271 26.4144 27.3187 28.2227C25.5104 30.031 23.1854 30.9352 20.3438 30.9352C17.5021 30.9352 15.1771 30.031 13.3687 28.2227ZM0 47.7915V45.5956C0 44.0887 0.398264 42.7217 1.19479 41.4946C1.99132 40.2675 3.05694 39.3526 4.39167 38.7498C7.49167 37.372 10.258 36.3817 12.6906 35.7789C15.1233 35.1762 17.6743 34.8748 20.3438 34.8748C23.0132 34.8748 25.5535 35.1762 27.9646 35.7789C30.3757 36.3817 33.1312 37.372 36.2313 38.7498C37.566 39.3526 38.6424 40.2675 39.4604 41.4946C40.2785 42.7217 40.6875 44.0887 40.6875 45.5956V47.7915C40.6875 48.8571 40.3082 49.7692 39.5495 50.5278C38.7905 51.2869 37.8781 51.6665 36.8125 51.6665H3.875C2.80938 51.6665 1.89724 51.2869 1.1386 50.5278C0.379535 49.7692 0 48.8571 0 47.7915Z" fill="black"/>
</g>
</svg>
