<svg width="62" height="62" viewBox="0 0 62 62" fill="none" xmlns="http://www.w3.org/2000/svg">
<mask id="mask0_525_1316" style="mask-type:alpha" maskUnits="userSpaceOnUse" x="0" y="0" width="62" height="62">
<rect width="62" height="62" fill="#D9D9D9"/>
</mask>
<g mask="url(#mask0_525_1316)">
<path d="M47.824 25.2521C52.108 23.1424 54.25 20.7528 54.25 18.0833C54.25 15.3708 52.108 12.9705 47.824 10.8823C43.5399 8.7941 37.9319 7.75 31 7.75C24.0681 7.75 18.4601 8.7941 14.176 10.8823C9.89201 12.9705 7.75 15.3708 7.75 18.0833C7.75 20.7528 9.89201 23.1424 14.176 25.2521C18.4601 27.3618 24.0681 28.4167 31 28.4167C37.9319 28.4167 43.5399 27.3618 47.824 25.2521ZM38.2333 34.326C40.9028 33.9601 43.4323 33.3896 45.8219 32.6146C48.2115 31.8396 50.2135 30.8385 51.8281 29.6115C53.4427 28.3844 54.25 26.9097 54.25 25.1875V31.6458C54.25 33.3681 53.4427 34.8427 51.8281 36.0698C50.2135 37.2969 48.2115 38.2979 45.8219 39.0729C43.4323 39.8479 40.9028 40.4184 38.2333 40.7844C35.5639 41.1503 33.1635 41.3333 31.0323 41.3333C28.901 41.3333 26.4899 41.1503 23.799 40.7844C21.108 40.4184 18.5677 39.8372 16.1781 39.0406C13.7885 38.2441 11.7865 37.2323 10.1719 36.0052C8.55729 34.7781 7.75 33.325 7.75 31.6458V25.1875C7.75 26.8667 8.55729 28.3198 10.1719 29.5469C11.7865 30.774 13.7885 31.7858 16.1781 32.5823C18.5677 33.3788 21.108 33.9601 23.799 34.326C26.4899 34.692 28.901 34.875 31.0323 34.875C33.1635 34.875 35.5639 34.692 38.2333 34.326ZM38.2333 47.2427C40.9028 46.8767 43.4323 46.3062 45.8219 45.5312C48.2115 44.7562 50.2135 43.7552 51.8281 42.5281C53.4427 41.301 54.25 39.8264 54.25 38.1042V44.5625C54.25 46.2847 53.4427 47.7594 51.8281 48.9865C50.2135 50.2135 48.2115 51.2146 45.8219 51.9896C43.4323 52.7646 40.9028 53.3351 38.2333 53.701C35.5639 54.067 33.1635 54.25 31.0323 54.25C28.901 54.25 26.4899 54.067 23.799 53.701C21.108 53.3351 18.5677 52.7538 16.1781 51.9573C13.7885 51.1608 11.7865 50.149 10.1719 48.9219C8.55729 47.6948 7.75 46.2417 7.75 44.5625V38.1042C7.75 39.7833 8.55729 41.2365 10.1719 42.4635C11.7865 43.6906 13.7885 44.7024 16.1781 45.499C18.5677 46.2955 21.108 46.8767 23.799 47.2427C26.4899 47.6087 28.901 47.7917 31.0323 47.7917C33.1635 47.7917 35.5639 47.6087 38.2333 47.2427Z" fill="black"/>
</g>
</svg>
