<svg width="62" height="62" viewBox="0 0 62 62" fill="none" xmlns="http://www.w3.org/2000/svg">
<mask id="mask0_525_1283" style="mask-type:alpha" maskUnits="userSpaceOnUse" x="0" y="0" width="62" height="62">
<rect width="62" height="62" fill="#D9D9D9"/>
</mask>
<g mask="url(#mask0_525_1283)">
<path d="M26.6082 56.8332C25.7471 56.8332 24.9613 56.5748 24.2509 56.0582C23.5405 55.5415 23.0776 54.8526 22.8623 53.9915L21.2478 48.1144C21.0325 47.4255 20.7203 46.7689 20.3113 46.1446C19.9023 45.5203 19.3533 44.9068 18.6644 44.304C16.8561 42.711 15.446 40.7735 14.4342 38.4915C13.4224 36.2096 12.9165 33.7123 12.9165 30.9998C12.9165 28.3304 13.4116 25.8439 14.4019 23.5405C15.3922 21.237 16.7915 19.2887 18.5998 17.6957C19.2887 17.0929 19.8484 16.4686 20.279 15.8228C20.7096 15.1769 21.0325 14.5311 21.2478 13.8853L22.8623 8.00817C23.0776 7.14706 23.5405 6.45817 24.2509 5.9415C24.9613 5.42484 25.7471 5.1665 26.6082 5.1665H35.3915C36.2526 5.1665 37.0384 5.42484 37.7488 5.9415C38.4592 6.45817 38.9221 7.14706 39.1373 8.00817L40.7519 13.8853C40.9672 14.5741 41.2901 15.2307 41.7207 15.855C42.1512 16.4794 42.711 17.0929 43.3998 17.6957C45.2082 19.2457 46.6075 21.1724 47.5978 23.4759C48.588 25.7794 49.0832 28.2873 49.0832 30.9998C49.0832 33.6693 48.5773 36.145 47.5655 38.4269C46.5537 40.7089 45.1436 42.6679 43.3353 44.304C42.6464 44.9068 42.0974 45.5203 41.6884 46.1446C41.2794 46.7689 40.9672 47.4255 40.7519 48.1144L39.1373 53.9915C38.9221 54.8526 38.4592 55.5415 37.7488 56.0582C37.0384 56.5748 36.2526 56.8332 35.3915 56.8332H26.6082ZM41.0748 41.0748C43.8304 38.3193 45.2082 34.961 45.2082 30.9998C45.2082 27.0387 43.8304 23.6804 41.0748 20.9248C38.3193 18.1693 34.9609 16.7915 30.9998 16.7915C27.0387 16.7915 23.6804 18.1693 20.9248 20.9248C18.1693 23.6804 16.7915 27.0387 16.7915 30.9998C16.7915 34.961 18.1693 38.3193 20.9248 41.0748C23.6804 43.8304 27.0387 45.2082 30.9998 45.2082C34.9609 45.2082 38.3193 43.8304 41.0748 41.0748Z" fill="black"/>
</g>
</svg>
