<svg width="62" height="62" viewBox="0 0 62 62" fill="none" xmlns="http://www.w3.org/2000/svg">
<mask id="mask0_525_1289" style="mask-type:alpha" maskUnits="userSpaceOnUse" x="0" y="0" width="62" height="62">
<rect width="62" height="62" fill="#D9D9D9"/>
</mask>
<g mask="url(#mask0_525_1289)">
<path d="M4.521 54.25C3.96127 54.25 3.49843 54.067 3.13245 53.701C2.76648 53.3351 2.5835 52.8722 2.5835 52.3125C2.5835 51.7528 2.76648 51.2899 3.13245 50.924C3.49843 50.558 3.96127 50.375 4.521 50.375H57.4793C58.0391 50.375 58.5019 50.558 58.8679 50.924C59.2338 51.2899 59.4168 51.7528 59.4168 52.3125C59.4168 52.8722 59.2338 53.3351 58.8679 53.701C58.5019 54.067 58.0391 54.25 57.4793 54.25H4.521ZM9.04183 46.5C8.0085 46.5 7.10433 46.1125 6.32933 45.3375C5.55433 44.5625 5.16683 43.6583 5.16683 42.625V11.625C5.16683 10.5917 5.55433 9.6875 6.32933 8.9125C7.10433 8.1375 8.0085 7.75 9.04183 7.75H52.9585C53.9918 7.75 54.896 8.1375 55.671 8.9125C56.446 9.6875 56.8335 10.5917 56.8335 11.625V42.625C56.8335 43.6583 56.446 44.5625 55.671 45.3375C54.896 46.1125 53.9918 46.5 52.9585 46.5H9.04183Z" fill="white"/>
</g>
</svg>
