<svg width="62" height="62" viewBox="0 0 62 62" fill="none" xmlns="http://www.w3.org/2000/svg">
<mask id="mask0_525_1295" style="mask-type:alpha" maskUnits="userSpaceOnUse" x="0" y="0" width="62" height="62">
<rect width="62" height="62" fill="#D9D9D9"/>
</mask>
<g mask="url(#mask0_525_1295)">
<path d="M33.0668 45.8543C35.2196 44.7779 37.3293 43.9706 39.396 43.4325C41.4627 42.8943 43.6585 42.6252 45.9835 42.6252C47.6196 42.6252 49.3095 42.7543 51.0533 43.0127C52.797 43.271 54.2932 43.6154 55.5418 44.046V16.3397C54.0779 15.6078 52.5279 15.0696 50.8918 14.7252C49.2557 14.3807 47.6196 14.2085 45.9835 14.2085C43.6585 14.2085 41.4088 14.5637 39.2345 15.2741C37.0602 15.9845 35.0043 16.9856 33.0668 18.2772V45.8543ZM30.1929 50.8595C29.913 50.795 29.6654 50.6766 29.4502 50.5043C27.4266 49.2557 25.2738 48.287 22.9918 47.5981C20.7099 46.9092 18.3849 46.5647 16.0168 46.5647C14.4238 46.5647 12.8738 46.7585 11.3668 47.146C9.85988 47.5335 8.35294 48.0071 6.846 48.5668C5.85572 49.0404 4.89773 48.9759 3.97204 48.3731C3.04634 47.7703 2.5835 46.9092 2.5835 45.7897V15.8877C2.5835 15.2418 2.73419 14.6498 3.03558 14.1116C3.33697 13.5734 3.78905 13.1536 4.39183 12.8522C6.20016 11.9911 8.08384 11.3561 10.0429 10.947C12.0019 10.538 13.9932 10.3335 16.0168 10.3335C18.7293 10.3335 21.3665 10.6995 23.9283 11.4314C26.4901 12.1634 28.8904 13.2828 31.1293 14.7897C33.3252 13.2828 35.6825 12.1634 38.2012 11.4314C40.72 10.6995 43.3141 10.3335 45.9835 10.3335C48.0071 10.3335 49.9877 10.538 51.9252 10.947C53.8627 11.3561 55.7356 11.9911 57.5439 12.8522C58.1467 13.1536 58.6095 13.5734 58.9325 14.1116C59.2554 14.6498 59.4168 15.2418 59.4168 15.8877V45.7897C59.4168 46.9953 58.9325 47.9102 57.9637 48.5345C56.995 49.1588 56.037 49.1696 55.0897 48.5668C53.6259 47.9641 52.1404 47.4797 50.6335 47.1137C49.1266 46.7477 47.5766 46.5647 45.9835 46.5647C43.6585 46.5647 41.3766 46.9092 39.1377 47.5981C36.8988 48.287 34.7891 49.2557 32.8085 50.5043C32.5932 50.6766 32.3456 50.795 32.0658 50.8595C31.7859 50.9241 31.4738 50.9564 31.1293 50.9564C30.7849 50.9564 30.4727 50.9241 30.1929 50.8595Z" fill="white"/>
</g>
</svg>
