<svg width="62" height="62" viewBox="0 0 62 62" fill="none" xmlns="http://www.w3.org/2000/svg">
<mask id="mask0_700_1055" style="mask-type:alpha" maskUnits="userSpaceOnUse" x="0" y="0" width="62" height="62">
<rect width="62" height="62" fill="#D9D9D9"/>
</mask>
<g mask="url(#mask0_700_1055)">
<path d="M5.16699 31.0003C5.16699 27.4267 5.84512 24.0684 7.20137 20.9253C8.55762 17.7823 10.3982 15.0482 12.7232 12.7232C15.0482 10.3982 17.7823 8.55762 20.9253 7.20137C24.0684 5.84512 27.4267 5.16699 31.0003 5.16699C36.8989 5.16699 42.0979 6.88921 46.5972 10.3337C51.0965 13.7781 54.1427 18.1913 55.7357 23.5732C55.908 24.133 55.8649 24.6604 55.6066 25.1555C55.3482 25.6507 54.9392 25.9628 54.3795 26.092C53.8628 26.2212 53.3892 26.1243 52.9587 25.8014C52.5281 25.4785 52.2267 25.0587 52.0545 24.542C51.1073 21.3559 49.5142 18.525 47.2753 16.0493C45.0364 13.5736 42.3455 11.6899 39.2024 10.3982V11.5607C39.2024 13.0677 38.6857 14.3809 37.6524 15.5003C36.6191 16.6198 35.3489 17.1795 33.842 17.1795H28.2232V22.7982C28.2232 23.5302 27.9326 24.133 27.3514 24.6066C26.7701 25.0802 26.1135 25.317 25.3816 25.317H20.0212V31.0003H25.1878C25.7475 31.0003 26.2104 31.1833 26.5764 31.5493C26.9423 31.9153 27.1253 32.3781 27.1253 32.9378V39.0732H22.7982L9.62324 25.8982C9.40796 26.7594 9.25727 27.6097 9.17116 28.4493C9.08505 29.2889 9.04199 30.1392 9.04199 31.0003C9.04199 36.5114 10.818 41.3229 14.3701 45.4347C17.9222 49.5465 22.4107 51.9684 27.8357 52.7003C28.3524 52.7864 28.7722 53.034 29.0951 53.443C29.418 53.8521 29.5795 54.3149 29.5795 54.8316C29.5795 55.3913 29.3857 55.8434 28.9982 56.1878C28.6107 56.5323 28.1371 56.6614 27.5774 56.5753C21.2052 55.7142 15.8771 52.8833 11.593 48.0826C7.30901 43.2819 5.16699 37.5878 5.16699 31.0003ZM53.5399 53.6691L46.242 46.4357C45.3378 47.0816 44.3583 47.5767 43.3035 47.9212C42.2486 48.2656 41.1614 48.4378 40.042 48.4378C36.985 48.4378 34.391 47.3722 32.2597 45.241C30.1285 43.1097 29.0628 40.5156 29.0628 37.4587C29.0628 34.4017 30.1285 31.8076 32.2597 29.6764C34.391 27.5451 36.985 26.4795 40.042 26.4795C43.0989 26.4795 45.693 27.5451 47.8243 29.6764C49.9555 31.8076 51.0212 34.4017 51.0212 37.4587C51.0212 38.5781 50.8382 39.6653 50.4722 40.7201C50.1062 41.775 49.6219 42.776 49.0191 43.7232L56.2524 50.9566C56.6399 51.3441 56.8444 51.7962 56.866 52.3128C56.8875 52.8295 56.7045 53.2816 56.317 53.6691C55.9295 54.0566 55.4667 54.2503 54.9285 54.2503C54.3903 54.2503 53.9274 54.0566 53.5399 53.6691ZM45.0795 42.4962C46.4573 41.1184 47.1462 39.4392 47.1462 37.4587C47.1462 35.4781 46.4573 33.7989 45.0795 32.4212C43.7017 31.0434 42.0225 30.3545 40.042 30.3545C38.0614 30.3545 36.3823 31.0434 35.0045 32.4212C33.6267 33.7989 32.9378 35.4781 32.9378 37.4587C32.9378 39.4392 33.6267 41.1184 35.0045 42.4962C36.3823 43.8739 38.0614 44.5628 40.042 44.5628C42.0225 44.5628 43.7017 43.8739 45.0795 42.4962Z" fill="black"/>
</g>
</svg>
