<svg width="62" height="62" viewBox="0 0 62 62" fill="none" xmlns="http://www.w3.org/2000/svg">
<mask id="mask0_700_1067" style="mask-type:alpha" maskUnits="userSpaceOnUse" x="0" y="0" width="62" height="62">
<rect width="62" height="62" fill="#D9D9D9"/>
</mask>
<g mask="url(#mask0_700_1067)">
<path d="M30.1601 50.8599C29.9018 50.7953 29.665 50.6769 29.4497 50.5046C27.5552 49.256 25.5424 48.2765 23.4111 47.5661C21.2799 46.8557 19.0733 46.5005 16.7913 46.5005C14.983 46.5005 13.207 46.7373 11.4632 47.2109C9.71947 47.6845 8.05106 48.3519 6.45801 49.213C5.55384 49.6866 4.68197 49.6651 3.84238 49.1484C3.0028 48.6317 2.58301 47.8783 2.58301 46.888V15.7588C2.58301 15.2852 2.70141 14.8331 2.93822 14.4026C3.17502 13.972 3.53023 13.6491 4.00384 13.4338C5.9844 12.4005 8.05106 11.6255 10.2038 11.1088C12.3566 10.5921 14.5525 10.3338 16.7913 10.3338C19.2886 10.3338 21.732 10.6567 24.1216 11.3026C26.5111 11.9484 28.8038 12.9171 30.9997 14.2088V46.888C33.1955 45.4671 35.499 44.4015 37.9101 43.6911C40.3212 42.9807 42.7538 42.6255 45.208 42.6255C46.758 42.6255 48.4479 42.7762 50.2778 43.0776C52.1077 43.379 53.8622 44.0033 55.5413 44.9505V12.3359C55.9719 12.5081 56.3917 12.6803 56.8007 12.8526C57.2097 13.0248 57.608 13.2185 57.9955 13.4338C58.4261 13.6921 58.7705 14.0258 59.0288 14.4349C59.2872 14.8439 59.4163 15.2852 59.4163 15.7588V46.888C59.4163 47.8783 58.9965 48.6317 58.157 49.1484C57.3174 49.6651 56.4455 49.6866 55.5413 49.213C53.9483 48.3519 52.2799 47.6845 50.5361 47.2109C48.7924 46.7373 47.0163 46.5005 45.208 46.5005C42.9261 46.5005 40.7195 46.8557 38.5882 47.5661C36.457 48.2765 34.4441 49.256 32.5497 50.5046C32.3344 50.6769 32.0976 50.7953 31.8393 50.8599C31.5809 50.9244 31.3011 50.9567 30.9997 50.9567C30.6983 50.9567 30.4184 50.9244 30.1601 50.8599ZM36.4893 39.4609C36.1448 39.7192 35.7896 39.773 35.4236 39.6224C35.0577 39.4717 34.8747 39.181 34.8747 38.7505V18.4713C34.8747 18.3421 34.8962 18.2237 34.9393 18.1161C34.9823 18.0085 35.0469 17.9116 35.133 17.8255L49.9872 2.97131C50.2886 2.66992 50.6438 2.59457 51.0528 2.74527C51.4618 2.89596 51.6663 3.18659 51.6663 3.61714V25.8338C51.6663 25.963 51.634 26.0921 51.5695 26.2213C51.5049 26.3505 51.4295 26.4581 51.3434 26.5442L36.4893 39.4609Z" fill="black"/>
</g>
</svg>
